<svg width="269" height="79" fill="none" xmlns="http://www.w3.org/2000/svg"><path d="M94 45.1v-7.28h1.04c.901 0 1.586-.728 2.054-2.184.468-1.473.754-3.874.858-7.202l.156-5.33H110.9V37.82h2.522v7.28h-3.744v-3.536h-11.96V45.1H94zm6.032-7.28h6.604V26.848h-4.628l-.078 2.184c-.069 2.375-.234 4.273-.494 5.694-.26 1.421-.728 2.453-1.404 3.094zm31.477-.988c0 1.057-.286 1.941-.858 2.652-.572.693-1.334 1.213-2.288 1.56-.936.347-1.976.52-3.12.52h-8.996v-18.46h10.27c.867 0 1.612.234 2.236.702.624.45 1.11 1.04 1.456 1.768.347.728.52 1.482.52 2.262a5 5 0 01-.676 2.496c-.45.797-1.109 1.387-1.976 1.768 1.04.312 1.872.867 2.496 1.664.624.797.936 1.82.936 3.068zm-10.998-10.088v3.822h4.186c.468 0 .884-.156 1.248-.468.364-.312.546-.797.546-1.456 0-.607-.164-1.075-.494-1.404a1.515 1.515 0 00-1.144-.494h-4.342zm6.656 9.23c0-.572-.164-1.057-.494-1.456-.329-.399-.745-.598-1.248-.598h-4.914v4.03h4.732c.538 0 .988-.182 1.352-.546.382-.381.572-.858.572-1.43zm20.088 1.846v3.744h-12.974v-18.46h12.74v3.744h-8.476v3.588h7.28v3.458h-7.28v3.926h8.71zm2.85 3.744v-18.46h7.878c.884 0 1.69.182 2.418.546a5.819 5.819 0 011.924 1.43 6.51 6.51 0 011.248 2.002 6.1 6.1 0 01.442 2.262 6.425 6.425 0 01-.754 3.042 6.213 6.213 0 01-2.054 2.34c-.884.59-1.915.884-3.094.884h-3.744v5.954h-4.264zm4.264-9.672h3.484c.503 0 .936-.217 1.3-.65.364-.433.546-1.066.546-1.898 0-.85-.217-1.473-.65-1.872-.416-.416-.867-.624-1.352-.624h-3.328v5.044zm12.299 9.672v-18.46h4.264v12.402l7.956-12.402h3.978v18.46h-4.264V29.24l-7.852 12.324h-4.082zm33.488 0h-4.884l2.986-5.122-7.098-13.338h4.706l4.29 9.022 3.796-9.022h4.498l-8.294 18.46zm32.288-18.46v18.46h-4.264v-7.566h-7.358v7.566h-4.264v-18.46h4.264v7.15h7.358v-7.15h4.264zm8.451 0h4.602l6.344 18.46h-4.368l-1.43-4.134h-5.746l-1.404 4.134h-4.368l6.37-18.46zm4.446 11.388l-2.158-7.098-2.21 7.098h4.368zm6.776-2.314c0-1.11.208-2.21.624-3.302a9.383 9.383 0 011.82-2.964 8.731 8.731 0 012.912-2.106c1.144-.537 2.444-.806 3.9-.806 1.716 0 3.215.373 4.498 1.118 1.283.745 2.236 1.716 2.86 2.912l-3.276 2.288c-.277-.641-.65-1.144-1.118-1.508a3.932 3.932 0 00-1.508-.78 5.582 5.582 0 00-1.56-.234c-1.092 0-1.993.277-2.704.832a5.038 5.038 0 00-1.586 2.106 6.817 6.817 0 00-.52 2.6c0 .97.199 1.89.598 2.756.399.85.962 1.534 1.69 2.054.728.52 1.586.78 2.574.78.52 0 1.049-.078 1.586-.234a4.35 4.35 0 001.482-.832 3.592 3.592 0 001.066-1.482l3.484 2.054c-.364.919-.962 1.699-1.794 2.34a9.745 9.745 0 01-2.834 1.456c-1.04.33-2.071.494-3.094.494-1.335 0-2.557-.269-3.666-.806a9.707 9.707 0 01-2.886-2.184 10.433 10.433 0 01-1.898-3.068 9.772 9.772 0 01-.65-3.484z" fill="#075892"/><path d="M94.392 58.564v-8.352h1.456l3.104 5.472 3.12-5.472h1.424v8.352h-1.344v-6.32L99.4 57.076h-.896l-2.768-4.832v6.32h-1.344zm15.391.16c-.832 0-1.568-.197-2.208-.592a4.209 4.209 0 01-1.504-1.584 4.427 4.427 0 01-.544-2.16c0-.79.182-1.51.544-2.16a4.243 4.243 0 011.504-1.568c.651-.395 1.392-.592 2.224-.592.843 0 1.574.203 2.192.608.63.395 1.115.917 1.456 1.568.352.64.528 1.333.528 2.08 0 .235-.01.416-.032.544h-6.928a3.29 3.29 0 00.448 1.456c.267.416.608.747 1.024.992.416.234.864.352 1.344.352.512 0 .992-.128 1.44-.384.459-.256.774-.592.944-1.008l1.216.336c-.266.618-.73 1.125-1.392 1.52-.661.395-1.413.592-2.256.592zm-2.816-4.832h5.696a3.056 3.056 0 00-.464-1.44 2.885 2.885 0 00-1.024-.976 2.75 2.75 0 00-1.376-.352c-.49 0-.944.117-1.36.352-.416.235-.757.56-1.024.976a3.183 3.183 0 00-.448 1.44zm8.318 4.672l3.072-4.304-2.8-4.048h1.584l2.4 3.472h.896v-3.472h1.44v3.472h.928l2.352-3.472h1.6l-2.8 4.048 3.088 4.304h-1.616l-2.624-3.648h-.928v3.648h-1.44v-3.648h-.896l-2.64 3.648h-1.616zm13.755 0v-8.352h1.408v3.44h.928l2.624-3.44h1.6l-3.12 4.048 3.488 4.304h-1.632l-2.96-3.616h-.928v3.616h-1.408zm11.843.16c-.832 0-1.568-.197-2.208-.592a4.284 4.284 0 01-1.472-1.584 4.494 4.494 0 01-.528-2.144c0-.779.176-1.494.528-2.144a4.252 4.252 0 011.488-1.584c.64-.406 1.371-.608 2.192-.608.832 0 1.563.203 2.192.608.64.395 1.136.922 1.488 1.584.363.65.544 1.365.544 2.144 0 .768-.181 1.482-.544 2.144a4.284 4.284 0 01-1.472 1.584c-.629.395-1.365.592-2.208.592zm-2.768-4.304c0 .576.123 1.099.368 1.568.256.47.592.843 1.008 1.12.416.267.88.4 1.392.4.512 0 .976-.139 1.392-.416a2.92 2.92 0 001.008-1.12c.256-.48.384-1.008.384-1.584a3.22 3.22 0 00-.384-1.568 2.918 2.918 0 00-1.008-1.12 2.454 2.454 0 00-1.392-.416 2.39 2.39 0 00-1.392.432c-.416.277-.752.65-1.008 1.12-.245.47-.368.997-.368 1.584zm9.002 4.144v-8.352h1.456l3.104 5.472 3.12-5.472h1.424v8.352h-1.344v-6.32l-2.752 4.832h-.896l-2.768-4.832v6.32h-1.344zm11.679 0v-8.352h1.408v3.456h4.352v-3.456h1.408v8.352h-1.408v-3.648h-4.352v3.648h-1.408zm9.102-2.416c0-.534.15-.992.448-1.376.31-.395.731-.699 1.264-.912.534-.213 1.152-.32 1.856-.32.374 0 .768.032 1.184.096a5.09 5.09 0 011.104.256v-.608c0-.64-.192-1.142-.576-1.504-.384-.373-.928-.56-1.632-.56-.458 0-.901.085-1.328.256-.416.16-.858.395-1.328.704l-.512-.992a6.56 6.56 0 011.632-.832 5.061 5.061 0 011.696-.288c1.067 0 1.91.299 2.528.896.619.587.928 1.408.928 2.464v3.536c0 .33.15.501.448.512v1.088a7.033 7.033 0 01-.368.048 2.26 2.26 0 01-.24.016c-.33 0-.581-.09-.752-.272a1.034 1.034 0 01-.272-.576l-.032-.528c-.362.47-.837.832-1.424 1.088a4.332 4.332 0 01-1.744.384c-.554 0-1.05-.112-1.488-.336a2.708 2.708 0 01-1.024-.928 2.439 2.439 0 01-.368-1.312zm5.44.592c.128-.15.23-.299.304-.448a.99.99 0 00.112-.4v-1.04a5.75 5.75 0 00-2.112-.4c-.714 0-1.296.144-1.744.432-.437.277-.656.661-.656 1.152 0 .267.07.528.208.784.15.245.363.448.64.608.288.16.64.24 1.056.24a3.1 3.1 0 001.248-.256c.395-.181.71-.405.944-.672zm6.334 1.824V51.46h-2.88v-1.248h7.168v1.248h-2.88v7.104h-1.408zm6.006 0v-8.352h1.408v3.456h4.352v-3.456h1.408v8.352h-1.408v-3.648h-4.352v3.648h-1.408zm9.742 0v-8.352h1.408v2.848h1.696c.982 0 1.723.25 2.224.752.512.49.768 1.136.768 1.936s-.245 1.472-.736 2.016c-.49.533-1.21.8-2.16.8h-3.2zm7.536 0v-8.336h1.408v8.336h-1.408zm-6.128-1.104h1.6c.587 0 1.008-.166 1.264-.496.267-.341.4-.736.4-1.184 0-.438-.122-.816-.368-1.136-.245-.32-.688-.48-1.328-.48h-1.568v3.296zm13.827 1.264c-.832 0-1.568-.197-2.208-.592a4.209 4.209 0 01-1.504-1.584 4.427 4.427 0 01-.544-2.16c0-.79.182-1.51.544-2.16a4.243 4.243 0 011.504-1.568c.651-.395 1.392-.592 2.224-.592.843 0 1.574.203 2.192.608.63.395 1.115.917 1.456 1.568.352.64.528 1.333.528 2.08 0 .235-.01.416-.032.544h-6.928a3.29 3.29 0 00.448 1.456c.267.416.608.747 1.024.992.416.234.864.352 1.344.352.512 0 .992-.128 1.44-.384.459-.256.774-.592.944-1.008l1.216.336c-.266.618-.73 1.125-1.392 1.52-.661.395-1.413.592-2.256.592zm-2.816-4.832h5.696a3.056 3.056 0 00-.464-1.44 2.885 2.885 0 00-1.024-.976 2.75 2.75 0 00-1.376-.352c-.49 0-.944.117-1.36.352-.416.235-.757.56-1.024.976a3.183 3.183 0 00-.448 1.44zm12.332 6.64v-3.216h.176c.31 0 .587-.128.832-.384.256-.267.464-.736.624-1.408.16-.683.256-1.648.288-2.896l.08-2.416h5.68v7.104h1.136v3.216h-1.248v-1.968h-6.32v1.968h-1.248zm2.144-3.216h4.128V51.46h-3.024l-.048 1.296c-.042 1.365-.154 2.4-.336 3.104-.17.704-.41 1.19-.72 1.456zm8.541 1.248v-8.352h4.32c.502 0 .918.101 1.248.304.331.192.576.443.736.752.171.31.256.64.256.992 0 .448-.106.853-.32 1.216a2.008 2.008 0 01-.928.8c.48.138.87.39 1.168.752.299.352.448.79.448 1.312 0 .704-.25 1.253-.752 1.648-.49.384-1.136.576-1.936.576h-4.24zm1.344-4.672h2.608c.374 0 .678-.139.912-.416.246-.288.368-.614.368-.976 0-.352-.117-.656-.352-.912-.224-.256-.517-.384-.88-.384H232.2v2.688zm0 3.68h2.864c.384 0 .704-.139.96-.416.267-.277.4-.597.4-.96 0-.373-.128-.694-.384-.96a1.184 1.184 0 00-.928-.416H232.2v2.752zm11.392 1.152c-.832 0-1.568-.197-2.208-.592a4.201 4.201 0 01-1.504-1.584 4.416 4.416 0 01-.544-2.16c0-.79.181-1.51.544-2.16a4.235 4.235 0 011.504-1.568c.65-.395 1.392-.592 2.224-.592.842 0 1.573.203 2.192.608a4.04 4.04 0 011.456 1.568c.352.64.528 1.333.528 2.08 0 .235-.011.416-.032.544h-6.928a3.28 3.28 0 00.448 1.456c.266.416.608.747 1.024.992.416.234.864.352 1.344.352.512 0 .992-.128 1.44-.384.458-.256.773-.592.944-1.008l1.216.336c-.267.618-.731 1.125-1.392 1.52-.662.395-1.414.592-2.256.592zm-2.816-4.832h5.696a3.079 3.079 0 00-.464-1.44 2.893 2.893 0 00-1.024-.976 2.753 2.753 0 00-1.376-.352 2.72 2.72 0 00-1.36.352c-.416.235-.758.56-1.024.976a3.17 3.17 0 00-.448 1.44zm13.389 4.832c-.683 0-1.291-.17-1.824-.512a3.852 3.852 0 01-1.264-1.296v5.056h-1.408v-11.76h1.248v1.568c.33-.512.762-.923 1.296-1.232a3.325 3.325 0 011.744-.48c.576 0 1.104.117 1.584.352.48.234.896.554 1.248.96.352.405.624.87.816 1.392.202.512.304 1.05.304 1.616 0 .79-.16 1.515-.48 2.176a3.916 3.916 0 01-1.312 1.584c-.566.384-1.216.576-1.952.576zm-.432-1.216c.554 0 1.034-.15 1.44-.448a3 3 0 00.944-1.168c.234-.48.352-.982.352-1.504 0-.566-.128-1.083-.384-1.552a2.888 2.888 0 00-1.024-1.12 2.543 2.543 0 00-1.456-.432c-.331 0-.683.085-1.056.256-.363.17-.683.4-.96.688a1.909 1.909 0 00-.512.928v2.384a3.546 3.546 0 001.072 1.408c.49.373 1.018.56 1.584.56zm6.208 1.056v-8.336h1.408v6.448l4.672-6.464h1.28v8.352h-1.408v-6.32l-4.608 6.32h-1.344zM54.415 0l-37.51 16.4 14.793 14.013 4.227 3.975L77.132 16.4 54.415 0z" fill="#64B0CE"/><path d="M43.32 10.052l-11.622 5.29V38.62l11.623-5.29V10.052z" fill="#FFFFFE"/><path d="M43.32 11.42l-6 4.933V33.42l6-2.266V11.42z" fill="#FCA789"/><path d="M42.32 13.42l-4 3v16l4-1.5v-17.5z" fill="#FF8256"/><path d="M33.811 47.085L0 15.342v33.859l33.811 29.626V47.085z" fill="#64B0CE"/><path d="M85.585 25.923L33.812 47.085v31.742l24.301-9.523v-22.22l8.453-3.174v21.162l19.02-8.465V25.923z" fill="#075892"/><path d="M79.245 43.91h-12.68v21.162h12.68V43.91z" fill="#FF8256"/></svg>