<svg xmlns="http://www.w3.org/2000/svg" width="14" height="16"><path fill="#212121" d="M.847 8.786L6.343 3.29c.35-.35.809-.553 1.301-.58a1.98 1.98 0 01.578-1.299 2.004 2.004 0 012.831.009l1.704 1.704c.23.23.357.53.358.845l.059 4.156a1.977 1.977 0 01-.582 1.413l-5.497 5.497a1.202 1.202 0 01-1.699-.006L.852 10.485a1.203 1.203 0 01-.005-1.699zm11.526-.662l-.059-4.155a.395.395 0 00-.121-.28.395.395 0 00-.28-.122l-3.25-.046c.04.055.083.108.132.157L10.5 5.382c.47.47.472 1.232.005 1.698a1.203 1.203 0 01-1.699-.005 1.203 1.203 0 01-.005-1.699c.099-.098.211-.176.331-.233l-.9-.901a2.001 2.001 0 01-.469-.733h-.005a1.185 1.185 0 00-.847.349L1.415 9.354a.401.401 0 00.002.567l4.544 4.544c.156.156.41.157.566.002l5.497-5.497c.225-.225.35-.526.349-.846zM9.935 5.946a.401.401 0 00-.566-.002.401.401 0 00.568.569.401.401 0 00-.002-.567zM8.79 1.98a1.19 1.19 0 00-.344.739l2.816.039-.773-.773A1.203 1.203 0 008.79 1.98zM6.54 12.183a.4.4 0 01-.567-.002L3.7 9.91a.4.4 0 01-.002-.566.4.4 0 01.567.002l2.272 2.272a.4.4 0 01.002.566zM5.394 8.216l2.272 2.272a.4.4 0 01.002.566.4.4 0 01-.567-.002L4.83 8.78a.4.4 0 01-.002-.566.4.4 0 01.567.002z"/></svg>