<svg xmlns="http://www.w3.org/2000/svg" width="21.375" height="19.94" viewBox="0 0 21.375 19.94">
  <defs>
    <style>
      .cls-1 {
        fill: #085892;
        fill-rule: evenodd;
      }
    </style>
  </defs>
  <path id="paperclip" class="cls-1" d="M506.551,3367.75a6.1,6.1,0,0,0-8.425,0l-9.817,9.63a4.451,4.451,0,0,0,.076,6.38,4.668,4.668,0,0,0,6.428,0l8.889-8.72a2.869,2.869,0,0,0,0-4.11,3.007,3.007,0,0,0-4.185,0l-8.5,8.35a0.746,0.746,0,0,0,.019,1.07,0.793,0.793,0,0,0,1.075,0l8.5-8.34a1.427,1.427,0,0,1,2,.04,1.369,1.369,0,0,1,0,1.92l-8.889,8.72a3.1,3.1,0,0,1-4.318-.03,2.96,2.96,0,0,1,0-4.21l9.817-9.63a4.531,4.531,0,0,1,6.333,0,4.331,4.331,0,0,1,0,6.21l-9.817,9.64a0.749,0.749,0,0,0-.085,1.07,0.793,0.793,0,0,0,1.09.08c0.03-.03.059-0.06,0.084-0.08l9.817-9.64A5.824,5.824,0,0,0,506.551,3367.75Z" transform="translate(-487 -3366.06)"/>
</svg>
