<svg xmlns="http://www.w3.org/2000/svg" width="23" height="23" viewBox="0 0 23 23">
  <defs>
    <style>
      .cls-1 {
        fill: #fff;
        fill-rule: evenodd;
      }
    </style>
  </defs>
  <path id="cart" class="cls-1" d="M1019.17,401.651h8.56a2.3,2.3,0,0,0,2.01-1.186l4.11-7.466a1.034,1.034,0,0,0,.15-0.549,1.151,1.151,0,0,0-1.15-1.149h-17l-1.09-2.3H1011v2.3h2.3l4.14,8.722-1.56,2.819a2.434,2.434,0,0,0-.28,1.11,2.3,2.3,0,0,0,2.3,2.3h13.8v-2.3h-13.31a0.286,0.286,0,0,1-.29-0.286,0.326,0.326,0,0,1,.04-0.14Zm-1.86-7.854h13.09l-3.01,5.336h-7.77S1017.36,393.905,1017.31,393.8Zm0.59,13.6a2.3,2.3,0,1,0,2.3,2.3A2.291,2.291,0,0,0,1017.9,407.4Zm0,2.786a0.485,0.485,0,1,1,.49-0.485A0.484,0.484,0,0,1,1017.9,410.183Zm11.5-2.786a2.3,2.3,0,1,0,2.3,2.3A2.285,2.285,0,0,0,1029.4,407.4Zm0,2.8a0.5,0.5,0,0,1,0-1A0.5,0.5,0,0,1,1029.4,410.2Z" transform="translate(-1011 -389)"/>
</svg>
