<svg xmlns="http://www.w3.org/2000/svg" width="14" height="14" viewBox="0 0 14 14">
  <defs>
    <style>
      .cls-1 {
        fill: #babed5;
        fill-rule: evenodd;
      }
    </style>
  </defs>
  <path id="ic-2" class="cls-1" d="M397.756,280.994a6.9,6.9,0,0,1,6.74,4.413,7.262,7.262,0,0,1-.018,5.253,6.964,6.964,0,0,1-4.627,4.1,12.115,12.115,0,0,1-1.6.242l-0.686-.018c-0.309-.047-0.584-0.038-0.865-0.1a7.866,7.866,0,0,1-1.515-.482,7.036,7.036,0,0,1-4.1-7.441,7.99,7.99,0,0,1,.339-1.349,7.049,7.049,0,0,1,4.2-4.208,7.9,7.9,0,0,1,1.347-.339Zm-2.247,3.064a7.192,7.192,0,0,0-1.15,1.1,0.526,0.526,0,0,0-.285.465,2.843,2.843,0,0,0,.633.679q0.843,0.848,1.685,1.7v0.018l-0.464.455-1.265,1.278a2.236,2.236,0,0,0-.589.643,0.49,0.49,0,0,0,.259.429l0.784,0.786a1.205,1.205,0,0,0,.366.331,1.107,1.107,0,0,0,.713-0.51l1.81-1.8h0.018l1.676,1.68a3.7,3.7,0,0,0,.668.634,0.445,0.445,0,0,0,.437-0.242l0.8-.8a1.219,1.219,0,0,0,.33-0.357,1.106,1.106,0,0,0-.508-0.714q-0.9-.908-1.8-1.814v-0.018l1.712-1.715a2.529,2.529,0,0,0,.606-0.661,0.49,0.49,0,0,0-.258-0.429l-0.812-.813a1.267,1.267,0,0,0-.312-0.295,0.959,0.959,0,0,0-.731.483l-1.827,1.822-1.739-1.733A1.444,1.444,0,0,0,395.509,284.058Z" transform="translate(-391 -281)"/>
</svg>
