<?xml version="1.0" encoding="utf-8"?>
<!-- Generator: Adobe Illustrator 24.1.2, SVG Export Plug-In . SVG Version: 6.00 Build 0)  -->
<svg version="1.1" id="Layer_1" xmlns="http://www.w3.org/2000/svg" xmlns:xlink="http://www.w3.org/1999/xlink" x="0px" y="0px"
	 viewBox="0 0 512 512" style="enable-background:new 0 0 512 512;" xml:space="preserve">
<path d="M512,146l-26.1-26.1l0,0l-52.8-52.8L201.3,299c-6.2,6.2-16.4,6.2-22.6,0l-99.8-99.8L0,278l150.5,150.5
	c4.3,4.3,9.2,7.8,14.5,10.4c0,0,0.1,0,0.1,0.1c0.6,0.3,1.2,0.6,1.8,0.9c0,0,0.1,0,0.1,0.1c1.8,0.8,3.6,1.5,5.5,2.1
	c0.2,0.1,0.3,0.1,0.5,0.2c0.5,0.2,1,0.3,1.5,0.5c0.3,0.1,0.6,0.2,0.8,0.2c0.5,0.1,0.9,0.3,1.4,0.4c0.3,0.1,0.7,0.2,1,0.2
	c0.6,0.1,1.2,0.3,1.8,0.4c0.6,0.1,1.2,0.2,1.7,0.3c0.4,0.1,0.7,0.1,1.1,0.1c0.5,0.1,0.9,0.1,1.4,0.2c0.4,0,0.7,0.1,1.1,0.1
	c0.5,0,1,0.1,1.5,0.1c0.3,0,0.7,0,1,0.1c0.7,0,1.4,0,2.1,0.1c0.1,0,0.3,0,0.4,0c14.8,0,29-5.9,39.4-16.3L512,146L512,146L512,146z"
	/>
</svg>
