<?xml version="1.0" encoding="utf-8"?>
<!-- Generator: Adobe Illustrator 24.1.2, SVG Export Plug-In . SVG Version: 6.00 Build 0)  -->
<svg version="1.1" id="Capa_1" xmlns="http://www.w3.org/2000/svg" xmlns:xlink="http://www.w3.org/1999/xlink" x="0px" y="0px"
	 viewBox="0 0 34.5 34.5" style="enable-background:new 0 0 34.5 34.5;" xml:space="preserve">
<g>
	<path d="M24.9,1.9l-0.7,0.7l-1.4-1.4l-1.4,1.4L20,1.1l-20,20l10.2,10.2l1.4-1.4l1.4,1.4l1.4-1.4l0.7,0.7l19.3-19.3L24.9,1.9z
		 M10.2,29.8l-8.8-8.8L20,2.5l0.7,0.7L2.8,21.2l8,8L10.2,29.8z M5.6,21.2l8,8L13,29.9l-8.8-8.8L22.8,2.6l0.7,0.7L5.6,21.2z
		 M23.3,19.6c-1.8,1.8-4.7,1.8-6.5,0c-1.8-1.8-1.8-4.7,0-6.5c1.8-1.8,4.7-1.8,6.5,0C25,14.9,25,17.8,23.3,19.6z M18.8,14.7l1.1,1.1
		l0.2-0.2c0.6-0.5,1.1-0.8,1.4-0.9c0.4,0,0.8,0.2,1.2,0.6c0.5,0.5,0.7,0.9,0.7,1.3c0,0.4-0.3,0.9-0.8,1.4l-0.2,0.2l0.5,0.5l-0.5,0.5
		L22,18.7l-0.1,0.1c-0.5,0.5-1,0.8-1.4,0.9c-0.4,0-0.8-0.2-1.3-0.6L19,19l0.7-0.8l0.1,0.1c0.3,0.3,0.5,0.4,0.7,0.4
		c0.2,0,0.4-0.2,0.7-0.5l0.1-0.1l-1.2-1.2c-0.6,0.6-1.1,0.9-1.5,1c-0.4,0.1-0.8-0.2-1.3-0.6c-0.5-0.5-0.7-0.9-0.6-1.3
		c0-0.4,0.4-0.9,0.9-1.5l-0.4-0.4l0.5-0.5l0.4,0.4c0.6-0.6,1-0.9,1.4-0.9c0.4-0.1,0.8,0.1,1.2,0.6l0.1,0.1l-0.7,0.7l-0.1-0.1
		c-0.3-0.3-0.7-0.3-1.1,0.1L18.8,14.7z M18.3,15.2l-0.1,0.1c-0.4,0.5-0.5,0.9-0.1,1.2c0.4,0.4,0.8,0.3,1.2-0.1c0,0,0,0,0.1-0.1
		L18.3,15.2z M21.8,17.6l0.1-0.1c0.5-0.5,0.5-0.9,0.1-1.3c-0.2-0.2-0.4-0.3-0.6-0.3c-0.2,0-0.4,0.2-0.8,0.6L21.8,17.6z"/>
</g>
</svg>
