<?xml version="1.0" encoding="utf-8"?>
<!-- Generator: Adobe Illustrator 24.1.2, SVG Export Plug-In . SVG Version: 6.00 Build 0)  -->
<svg version="1.1" id="Capa_1" xmlns="http://www.w3.org/2000/svg" xmlns:xlink="http://www.w3.org/1999/xlink" x="0px" y="0px"
	 viewBox="0 0 550.4 550.4" style="enable-background:new 0 0 550.4 550.4;" xml:space="preserve">
<style type="text/css">
	.st0{fill:#FFFFFF;}
</style>
<g>
	<g>
		<path class="st0" d="M0,218l0,114.4c0,5.1,4.1,9.2,9.2,9.2h279.9c5.1,0,5.9,2.5,1.9,5.6L222.6,399c-4,3.1-7.3,9.7-7.3,14.7v111
			c0,5.1,3.3,6.7,7.3,3.6l324.8-247.6c4-3.1,4-8.1,0-11.1L222.5,22c-4-3.1-7.3-1.5-7.3,3.6v111c0,5.1,3.3,11.7,7.3,14.7l68.4,51.9
			c4,3.1,3.2,5.6-1.9,5.6H9.2C4.1,208.8,0,212.9,0,218z"/>
	</g>
</g>
</svg>
