<svg xmlns="http://www.w3.org/2000/svg" xmlns:xlink="http://www.w3.org/1999/xlink" width="27.031" height="25.094" viewBox="0 0 27.031 25.094">
  <defs>
    <style>
      .cls-1 {
        fill: #fff;
        fill-rule: evenodd;
        filter: url(#filter);
      }
    </style>
    <filter id="filter" x="397" y="243.969" width="27.031" height="25.094" filterUnits="userSpaceOnUse">
      <feGaussianBlur result="blur" stdDeviation="1.732" in="SourceAlpha"/>
      <feFlood result="flood" flood-opacity="0.3"/>
      <feComposite result="composite" operator="out" in2="blur"/>
      <feOffset result="offset" dx="-1.975" dy="-0.313"/>
      <feComposite result="composite-2" operator="in" in2="SourceAlpha"/>
      <feBlend result="blend" mode="multiply" in2="SourceGraphic"/>
    </filter>
  </defs>
  <path id="arrow" class="cls-1" d="M397.451,253.232h13.731c0.248,0,.289-0.123.091-0.274l-3.354-2.556a1.029,1.029,0,0,1-.359-0.725v-5.468c0-.249.161-0.329,0.358-0.178l15.935,12.195a0.327,0.327,0,0,1,0,.548l-15.935,12.195c-0.2.151-.358,0.071-0.358-0.178v-5.468a1.029,1.029,0,0,1,.359-0.725l3.354-2.556c0.2-.152.157-0.274-0.092-0.274H397.45a0.451,0.451,0,0,1-.45-0.452v-5.632A0.451,0.451,0,0,1,397.451,253.232Z" transform="translate(-397 -243.969)"/>
</svg>
