<svg xmlns="http://www.w3.org/2000/svg" width="27.001" height="25.091" viewBox="0 0 27.001 25.091">
  <path id="arrow" d="M714.451,253.232h13.731c.249,0,.29-.122.092-.273l-3.354-2.557a1.027,1.027,0,0,1-.359-.725v-5.467c0-.25.16-.329.358-.178l15.934,12.195a.327.327,0,0,1,0,.548l-15.935,12.195c-.2.151-.358.072-.358-.178v-5.467a1.028,1.028,0,0,1,.359-.725l3.354-2.557c.2-.151.157-.273-.092-.273H714.45a.451.451,0,0,1-.45-.452v-5.632A.452.452,0,0,1,714.451,253.232Z" transform="translate(-714 -243.955)" fill="#fff"/>
</svg>
