<svg xmlns="http://www.w3.org/2000/svg" width="17" height="21" viewBox="0 0 17 21">
  <defs>
    <style>
      .cls-1 {
        fill: #085892;
        stroke: #085892;
        stroke-linejoin: round;
        stroke-width: 1px;
        fill-rule: evenodd;
      }
    </style>
  </defs>
  <path id="call" class="cls-1" d="M206.891,52.5a7.146,7.146,0,0,1-2.042-.9,0.977,0.977,0,0,0-1-.053l-1.615.649a7.574,7.574,0,0,1-2.445-4.18l1.334-1.031a0.986,0.986,0,0,0,.5-0.9,6.857,6.857,0,0,1,.231-2.2,0.982,0.982,0,0,0-.7-1.2l-2.126-.562a1.064,1.064,0,0,0-1.3.749,11.234,11.234,0,0,0,8.058,13.687,1,1,0,0,0,1.222-.691l0.586-2.161A0.977,0.977,0,0,0,206.891,52.5Zm-0.548,3.19a0.308,0.308,0,0,1-.373.215,10.563,10.563,0,0,1-7.558-12.94,0.306,0.306,0,0,1,.375-0.211l2.194,0.581a0.3,0.3,0,0,1,.218.369,7.527,7.527,0,0,0-.253,2.41,0.335,0.335,0,0,1-.2.31l-1.543,1.191a0.343,0.343,0,0,0-.127.339,8.412,8.412,0,0,0,2.86,4.895,0.353,0.353,0,0,0,.36.064l1.859-.748a0.309,0.309,0,0,1,.319.009,7.758,7.758,0,0,0,2.245.99,0.3,0.3,0,0,1,.214.371l-0.585,2.158Z" transform="translate(-194 -39)"/>
</svg>
