<svg xmlns="http://www.w3.org/2000/svg" width="23" height="30" viewBox="0 0 23 30">
  <defs>
    <style>
      .cls-1 {
        fill: #085892;
        stroke: #085892;
        stroke-linejoin: round;
        stroke-width: 1px;
        fill-rule: evenodd;
      }
    </style>
  </defs>
  <path id="call" class="cls-1" d="M697.579,67.432a11.532,11.532,0,0,1-3.289-1.449,1.573,1.573,0,0,0-1.61-.085l-2.6,1.046a12.205,12.205,0,0,1-3.939-6.734l2.149-1.66A1.591,1.591,0,0,0,689.1,57.1a11.093,11.093,0,0,1,.371-3.546,1.58,1.58,0,0,0-1.13-1.934l-3.425-.906a1.713,1.713,0,0,0-2.1,1.206A18.1,18.1,0,0,0,695.8,73.967a1.607,1.607,0,0,0,1.968-1.114l0.945-3.482A1.575,1.575,0,0,0,697.579,67.432ZM696.7,72.571a0.5,0.5,0,0,1-.6.347,17.019,17.019,0,0,1-12.177-20.848,0.493,0.493,0,0,1,.605-0.341l3.534,0.935a0.49,0.49,0,0,1,.352.594A12.073,12.073,0,0,0,688,57.142a0.541,0.541,0,0,1-.32.5L685.2,59.559a0.552,0.552,0,0,0-.2.546A13.548,13.548,0,0,0,689.6,67.99a0.568,0.568,0,0,0,.579.1l3-1.205a0.5,0.5,0,0,1,.514.015,12.511,12.511,0,0,0,3.617,1.6,0.486,0.486,0,0,1,.345.6l-0.943,3.477Z" transform="translate(-679 -47)"/>
</svg>
