<svg xmlns="http://www.w3.org/2000/svg" width="20" height="25" viewBox="0 0 20 25">
  <defs>
    <style>
      .cls-1 {
        fill: #085892;
        stroke: #085892;
        stroke-linejoin: round;
        stroke-width: 1px;
        fill-rule: evenodd;
      }
    </style>
  </defs>
  <path id="call_копия" data-name="call копия" class="cls-1" d="M79.332,66.53a8.738,8.738,0,0,1-2.49-1.1,1.19,1.19,0,0,0-1.218-.064l-1.969.791a9.238,9.238,0,0,1-2.982-5.1L72.3,59.806a1.2,1.2,0,0,0,.611-1.1,8.371,8.371,0,0,1,.281-2.684,1.2,1.2,0,0,0-.856-1.464l-2.593-.686a1.3,1.3,0,0,0-1.589.913,13.7,13.7,0,0,0,9.828,16.694,1.216,1.216,0,0,0,1.49-.843L80.187,68A1.192,1.192,0,0,0,79.332,66.53Zm-0.667,3.89a0.376,0.376,0,0,1-.455.263A12.884,12.884,0,0,1,68.991,54.9a0.373,0.373,0,0,1,.458-0.258l2.676,0.708a0.37,0.37,0,0,1,.266.449,9.143,9.143,0,0,0-.308,2.94,0.41,0.41,0,0,1-.242.378L69.958,60.57a0.418,0.418,0,0,0-.154.413,10.259,10.259,0,0,0,3.488,5.969,0.43,0.43,0,0,0,.438.079L76,66.118a0.377,0.377,0,0,1,.389.012,9.495,9.495,0,0,0,2.739,1.208,0.368,0.368,0,0,1,.261.453l-0.714,2.632Z" transform="translate(-64 -50)"/>
</svg>
