<svg xmlns="http://www.w3.org/2000/svg" xmlns:xlink="http://www.w3.org/1999/xlink" width="25.062" height="25.063" viewBox="0 0 25.062 25.063">
  <defs>
    <style>
      .cls-1 {
        fill: #fff;
        fill-rule: evenodd;
        filter: url(#filter);
      }
    </style>
    <filter id="filter" x="428.813" y="244" width="25.062" height="25.063" filterUnits="userSpaceOnUse">
      <feGaussianBlur result="blur" stdDeviation="1.732" in="SourceAlpha"/>
      <feFlood result="flood" flood-opacity="0.3"/>
      <feComposite result="composite" operator="out" in2="blur"/>
      <feOffset result="offset" dx="-1.975" dy="-0.313"/>
      <feComposite result="composite-2" operator="in" in2="SourceAlpha"/>
      <feBlend result="blend" mode="multiply" in2="SourceGraphic"/>
    </filter>
  </defs>
  <path id="cart" class="cls-1" d="M436.341,264.044a2.5,2.5,0,1,0,2.5,2.5A2.493,2.493,0,0,0,436.341,264.044Zm1.378-6.261h9.329a2.512,2.512,0,0,0,2.191-1.289l4.477-8.127a1.211,1.211,0,0,0,.156-0.6,1.251,1.251,0,0,0-1.252-1.252H434.106l-1.19-2.505h-4.088v2.505h2.505l4.5,9.5-1.69,3.067a2.553,2.553,0,0,0-.307,1.209,2.5,2.5,0,0,0,2.5,2.5h15.027v-2.5H436.874a0.31,0.31,0,0,1-.313-0.313,0.3,0.3,0,0,1,.037-0.151Zm11.144,6.261a2.5,2.5,0,1,0,2.5,2.5A2.493,2.493,0,0,0,448.863,264.044Z" transform="translate(-428.813 -244)"/>
</svg>
