<svg xmlns="http://www.w3.org/2000/svg" width="25.043" height="25.041" viewBox="0 0 25.043 25.041">
  <path id="cart" d="M446.37,266.55a2.5,2.5,0,1,1,2.5,2.5A2.5,2.5,0,0,1,446.37,266.55Zm-12.52,0a2.5,2.5,0,1,1,2.5,2.5A2.5,2.5,0,0,1,433.85,266.55Zm2.491-3.758a2.5,2.5,0,0,1-2.5-2.5,2.545,2.545,0,0,1,.307-1.209l1.69-3.068-4.5-9.5h-2.5v-2.5h4.088l1.19,2.5H452.62a1.252,1.252,0,0,1,1.252,1.252,1.213,1.213,0,0,1-.156.6l-4.478,8.127a2.511,2.511,0,0,1-2.191,1.29h-9.329l-1.12,2.041a.3.3,0,0,0-.038.15.31.31,0,0,0,.313.313h14.495v2.5Z" transform="translate(-428.828 -244.009)" fill="#fff"/>
</svg>
