<svg xmlns="http://www.w3.org/2000/svg" width="32.572" height="25.055" viewBox="0 0 32.572 25.055">
  <path id="check" d="M427.888,249.223l-1.66-1.73h0l-3.359-3.5-14.746,15.375a.992.992,0,0,1-1.438,0l-6.349-6.617-5.019,5.225,9.574,9.978a3.468,3.468,0,0,0,.922.69.006.006,0,0,1,.006.007l.115.06a.006.006,0,0,1,.006.007,3.235,3.235,0,0,0,.35.139c.013.007.019.007.032.013.032.013.064.02.1.033a.192.192,0,0,0,.051.013c.032.007.057.02.089.026a.217.217,0,0,0,.064.013c.038.007.076.02.114.026l.108.02a.248.248,0,0,0,.07.007c.032.007.057.007.089.013s.044.007.07.007.064.007.1.007a.208.208,0,0,1,.064.007.909.909,0,0,1,.134.007h.025a3.477,3.477,0,0,0,2.507-1.081l17.991-18.743Z" transform="translate(-395.316 -243.992)" fill="#fff"/>
</svg>
