<?xml version="1.0" encoding="utf-8"?>
<!-- Generator: Adobe Illustrator 24.1.2, SVG Export Plug-In . SVG Version: 6.00 Build 0)  -->
<svg version="1.1" id="Слой_1" xmlns="http://www.w3.org/2000/svg" xmlns:xlink="http://www.w3.org/1999/xlink" x="0px" y="0px"
	 viewBox="0 0 512 512" style="enable-background:new 0 0 512 512;" xml:space="preserve">
<style type="text/css">
	.st0{fill:#FFFFFF;}
</style>
<path class="st0" d="M343.9,41.2l-232.3,119l-92.4-45.4L247.4,2c5.1-2.6,11.3-2.6,16.6,0L343.9,41.2z"/>
<path class="st0" d="M492.5,114.7L256.1,231.8l-88.5-43.6l-12.8-6.5L387.4,62.7l12.8,6.5L492.5,114.7z"/>
<path class="st0" d="M237.2,265.5L236.9,512L10.5,393.8C4.1,390.5,0,383.7,0,376.4v-228l96,47.3v83.1c0,10.6,8.7,19.5,19.2,19.5
	s19.2-8.8,19.2-19.5v-63.9l12.8,6.2L237.2,265.5z"/>
<path class="st0" d="M511.7,148.7L275.6,265.3l-0.3,246.5L512,388.2L511.7,148.7z"/>
</svg>
