<svg width="269" height="79" viewBox="0 0 269 79" fill="none" xmlns="http://www.w3.org/2000/svg">
<path d="M94 45.1V37.82H95.04C95.9413 37.82 96.626 37.092 97.094 35.636C97.562 34.1627 97.848 31.762 97.952 28.434L98.108 23.104H110.9V37.82H113.422V45.1H109.678V41.564H97.718V45.1H94ZM100.032 37.82H106.636V26.848H102.008L101.93 29.032C101.861 31.4067 101.696 33.3047 101.436 34.726C101.176 36.1473 100.708 37.1787 100.032 37.82Z" fill="#075892"/>
<path d="M131.509 36.832C131.509 37.8893 131.223 38.7733 130.651 39.484C130.079 40.1773 129.317 40.6973 128.363 41.044C127.427 41.3907 126.387 41.564 125.243 41.564H116.247V23.104H126.517C127.384 23.104 128.129 23.338 128.753 23.806C129.377 24.2567 129.863 24.846 130.209 25.574C130.556 26.302 130.729 27.056 130.729 27.836C130.729 28.7027 130.504 29.5347 130.053 30.332C129.603 31.1293 128.944 31.7187 128.077 32.1C129.117 32.412 129.949 32.9667 130.573 33.764C131.197 34.5613 131.509 35.584 131.509 36.832ZM120.511 26.744V30.566H124.697C125.165 30.566 125.581 30.41 125.945 30.098C126.309 29.786 126.491 29.3007 126.491 28.642C126.491 28.0353 126.327 27.5673 125.997 27.238C125.685 26.9087 125.304 26.744 124.853 26.744H120.511ZM127.167 35.974C127.167 35.402 127.003 34.9167 126.673 34.518C126.344 34.1193 125.928 33.92 125.425 33.92H120.511V37.95H125.243C125.781 37.95 126.231 37.768 126.595 37.404C126.977 37.0227 127.167 36.546 127.167 35.974Z" fill="#075892"/>
<path d="M147.255 37.82V41.564H134.281V23.104H147.021V26.848H138.545V30.436H145.825V33.894H138.545V37.82H147.255Z" fill="#075892"/>
<path d="M150.105 41.564V23.104H157.983C158.867 23.104 159.673 23.286 160.401 23.65C161.146 23.9967 161.788 24.4733 162.325 25.08C162.862 25.6693 163.278 26.3367 163.573 27.082C163.868 27.8273 164.015 28.5813 164.015 29.344C164.015 30.4187 163.764 31.4327 163.261 32.386C162.776 33.3393 162.091 34.1193 161.207 34.726C160.323 35.3153 159.292 35.61 158.113 35.61H154.369V41.564H150.105ZM154.369 31.892H157.853C158.356 31.892 158.789 31.6753 159.153 31.242C159.517 30.8087 159.699 30.176 159.699 29.344C159.699 28.4947 159.482 27.8707 159.049 27.472C158.633 27.056 158.182 26.848 157.697 26.848H154.369V31.892Z" fill="#075892"/>
<path d="M166.668 41.564V23.104H170.932V35.506L178.888 23.104H182.866V41.564H178.602V29.24L170.75 41.564H166.668Z" fill="#075892"/>
<path d="M200.156 41.564H195.272L198.258 36.442L191.16 23.104H195.866L200.156 32.126L203.952 23.104H208.45L200.156 41.564Z" fill="#075892"/>
<path d="M232.444 23.104V41.564H228.18V33.998H220.822V41.564H216.558V23.104H220.822V30.254H228.18V23.104H232.444Z" fill="#075892"/>
<path d="M240.895 23.104H245.497L251.841 41.564H247.473L246.043 37.43H240.297L238.893 41.564H234.525L240.895 23.104ZM245.341 34.492L243.183 27.394L240.973 34.492H245.341Z" fill="#075892"/>
<path d="M252.117 32.178C252.117 31.0687 252.325 29.968 252.741 28.876C253.157 27.784 253.764 26.796 254.561 25.912C255.358 25.028 256.329 24.326 257.473 23.806C258.617 23.2687 259.917 23 261.373 23C263.089 23 264.588 23.3727 265.871 24.118C267.154 24.8633 268.107 25.834 268.731 27.03L265.455 29.318C265.178 28.6767 264.805 28.174 264.337 27.81C263.869 27.4287 263.366 27.1687 262.829 27.03C262.292 26.874 261.772 26.796 261.269 26.796C260.177 26.796 259.276 27.0733 258.565 27.628C257.854 28.1827 257.326 28.8847 256.979 29.734C256.632 30.5833 256.459 31.45 256.459 32.334C256.459 33.3047 256.658 34.2233 257.057 35.09C257.456 35.9393 258.019 36.624 258.747 37.144C259.475 37.664 260.333 37.924 261.321 37.924C261.841 37.924 262.37 37.846 262.907 37.69C263.444 37.5167 263.938 37.2393 264.389 36.858C264.857 36.4767 265.212 35.9827 265.455 35.376L268.939 37.43C268.575 38.3487 267.977 39.1287 267.145 39.77C266.313 40.394 265.368 40.8793 264.311 41.226C263.271 41.5553 262.24 41.72 261.217 41.72C259.882 41.72 258.66 41.4513 257.551 40.914C256.442 40.3593 255.48 39.6313 254.665 38.73C253.85 37.8113 253.218 36.7887 252.767 35.662C252.334 34.518 252.117 33.3567 252.117 32.178Z" fill="#075892"/>
<path d="M94.3921 58.5639V50.2119H95.8481L98.9521 55.6839L102.072 50.2119H103.496V58.5639H102.152V52.2439L99.4001 57.0759H98.5041L95.7361 52.2439V58.5639H94.3921Z" fill="#64B0CE"/>
<path d="M109.783 58.7239C108.951 58.7239 108.215 58.5265 107.575 58.1319C106.935 57.7372 106.434 57.2092 106.071 56.5479C105.709 55.8865 105.527 55.1665 105.527 54.3879C105.527 53.5985 105.709 52.8785 106.071 52.2279C106.434 51.5772 106.935 51.0545 107.575 50.6599C108.226 50.2652 108.967 50.0679 109.799 50.0679C110.642 50.0679 111.373 50.2705 111.991 50.6759C112.621 51.0705 113.106 51.5932 113.447 52.2439C113.799 52.8839 113.975 53.5772 113.975 54.3239C113.975 54.5585 113.965 54.7399 113.943 54.8679H107.015C107.058 55.4119 107.207 55.8972 107.463 56.3239C107.73 56.7399 108.071 57.0705 108.487 57.3159C108.903 57.5505 109.351 57.6679 109.831 57.6679C110.343 57.6679 110.823 57.5399 111.271 57.2839C111.73 57.0279 112.045 56.6919 112.215 56.2759L113.431 56.6119C113.165 57.2305 112.701 57.7372 112.039 58.1319C111.378 58.5265 110.626 58.7239 109.783 58.7239ZM106.967 53.8919H112.663C112.621 53.3479 112.466 52.8679 112.199 52.4519C111.933 52.0359 111.591 51.7105 111.175 51.4759C110.759 51.2412 110.301 51.1239 109.799 51.1239C109.309 51.1239 108.855 51.2412 108.439 51.4759C108.023 51.7105 107.682 52.0359 107.415 52.4519C107.159 52.8679 107.01 53.3479 106.967 53.8919Z" fill="#64B0CE"/>
<path d="M115.285 58.5639L118.357 54.2599L115.557 50.2119H117.141L119.541 53.6839H120.437V50.2119H121.877V53.6839H122.805L125.157 50.2119H126.757L123.957 54.2599L127.045 58.5639H125.429L122.805 54.9159H121.877V58.5639H120.437V54.9159H119.541L116.901 58.5639H115.285Z" fill="#64B0CE"/>
<path d="M129.04 58.5639V50.2119H130.448V53.6519H131.376L134 50.2119H135.6L132.48 54.2599L135.968 58.5639H134.336L131.376 54.9479H130.448V58.5639H129.04Z" fill="#64B0CE"/>
<path d="M140.883 58.7239C140.051 58.7239 139.315 58.5265 138.675 58.1319C138.046 57.7265 137.555 57.1985 137.203 56.5479C136.851 55.8865 136.675 55.1719 136.675 54.4039C136.675 53.6252 136.851 52.9105 137.203 52.2599C137.566 51.5985 138.062 51.0705 138.691 50.6759C139.331 50.2705 140.062 50.0679 140.883 50.0679C141.715 50.0679 142.446 50.2705 143.075 50.6759C143.715 51.0705 144.211 51.5985 144.563 52.2599C144.926 52.9105 145.107 53.6252 145.107 54.4039C145.107 55.1719 144.926 55.8865 144.563 56.5479C144.211 57.1985 143.72 57.7265 143.091 58.1319C142.462 58.5265 141.726 58.7239 140.883 58.7239ZM138.115 54.4199C138.115 54.9959 138.238 55.5185 138.483 55.9879C138.739 56.4572 139.075 56.8305 139.491 57.1079C139.907 57.3745 140.371 57.5079 140.883 57.5079C141.395 57.5079 141.859 57.3692 142.275 57.0919C142.702 56.8145 143.038 56.4412 143.283 55.9719C143.539 55.4919 143.667 54.9639 143.667 54.3879C143.667 53.8119 143.539 53.2892 143.283 52.8199C143.038 52.3505 142.702 51.9772 142.275 51.6999C141.859 51.4225 141.395 51.2839 140.883 51.2839C140.371 51.2839 139.907 51.4279 139.491 51.7159C139.075 51.9932 138.739 52.3665 138.483 52.8359C138.238 53.3052 138.115 53.8332 138.115 54.4199Z" fill="#64B0CE"/>
<path d="M147.117 58.5639V50.2119H148.573L151.677 55.6839L154.797 50.2119H156.221V58.5639H154.877V52.2439L152.125 57.0759H151.229L148.461 52.2439V58.5639H147.117Z" fill="#64B0CE"/>
<path d="M158.796 58.5639V50.2119H160.204V53.6679H164.556V50.2119H165.964V58.5639H164.556V54.9159H160.204V58.5639H158.796Z" fill="#64B0CE"/>
<path d="M167.898 56.1479C167.898 55.6145 168.048 55.1559 168.346 54.7719C168.656 54.3772 169.077 54.0732 169.61 53.8599C170.144 53.6465 170.762 53.5399 171.466 53.5399C171.84 53.5399 172.234 53.5719 172.65 53.6359C173.066 53.6892 173.434 53.7745 173.754 53.8919V53.2839C173.754 52.6439 173.562 52.1425 173.178 51.7799C172.794 51.4065 172.25 51.2199 171.546 51.2199C171.088 51.2199 170.645 51.3052 170.218 51.4759C169.802 51.6359 169.36 51.8705 168.89 52.1799L168.378 51.1879C168.922 50.8145 169.466 50.5372 170.01 50.3559C170.554 50.1639 171.12 50.0679 171.706 50.0679C172.773 50.0679 173.616 50.3665 174.234 50.9639C174.853 51.5505 175.162 52.3719 175.162 53.4279V56.9639C175.162 57.2945 175.312 57.4652 175.61 57.4759V58.5639C175.472 58.5852 175.349 58.6012 175.242 58.6119C175.146 58.6225 175.066 58.6279 175.002 58.6279C174.672 58.6279 174.421 58.5372 174.25 58.3559C174.09 58.1745 174 57.9825 173.978 57.7799L173.946 57.2519C173.584 57.7212 173.109 58.0839 172.522 58.3399C171.936 58.5959 171.354 58.7239 170.778 58.7239C170.224 58.7239 169.728 58.6119 169.29 58.3879C168.853 58.1532 168.512 57.8439 168.266 57.4599C168.021 57.0652 167.898 56.6279 167.898 56.1479ZM173.338 56.7399C173.466 56.5905 173.568 56.4412 173.642 56.2919C173.717 56.1319 173.754 55.9985 173.754 55.8919V54.8519C173.072 54.5852 172.368 54.4519 171.642 54.4519C170.928 54.4519 170.346 54.5959 169.898 54.8839C169.461 55.1612 169.242 55.5452 169.242 56.0359C169.242 56.3025 169.312 56.5639 169.45 56.8199C169.6 57.0652 169.813 57.2679 170.09 57.4279C170.378 57.5879 170.73 57.6679 171.146 57.6679C171.584 57.6679 172 57.5825 172.394 57.4119C172.789 57.2305 173.104 57.0065 173.338 56.7399Z" fill="#64B0CE"/>
<path d="M179.672 58.5639V51.4599H176.792V50.2119H183.96V51.4599H181.08V58.5639H179.672Z" fill="#64B0CE"/>
<path d="M185.678 58.5639V50.2119H187.086V53.6679H191.438V50.2119H192.846V58.5639H191.438V54.9159H187.086V58.5639H185.678Z" fill="#64B0CE"/>
<path d="M195.42 58.5639V50.2119H196.828V53.0599H198.524C199.506 53.0599 200.247 53.3105 200.748 53.8119C201.26 54.3025 201.516 54.9479 201.516 55.7479C201.516 56.5479 201.271 57.2199 200.78 57.7639C200.29 58.2972 199.57 58.5639 198.62 58.5639H195.42ZM202.956 58.5639V50.2279H204.364V58.5639H202.956ZM196.828 57.4599H198.428C199.015 57.4599 199.436 57.2945 199.692 56.9639C199.959 56.6225 200.092 56.2279 200.092 55.7799C200.092 55.3425 199.97 54.9639 199.724 54.6439C199.479 54.3239 199.036 54.1639 198.396 54.1639H196.828V57.4599Z" fill="#64B0CE"/>
<path d="M210.655 58.7239C209.823 58.7239 209.087 58.5265 208.447 58.1319C207.807 57.7372 207.306 57.2092 206.943 56.5479C206.581 55.8865 206.399 55.1665 206.399 54.3879C206.399 53.5985 206.581 52.8785 206.943 52.2279C207.306 51.5772 207.807 51.0545 208.447 50.6599C209.098 50.2652 209.839 50.0679 210.671 50.0679C211.514 50.0679 212.245 50.2705 212.863 50.6759C213.493 51.0705 213.978 51.5932 214.319 52.2439C214.671 52.8839 214.847 53.5772 214.847 54.3239C214.847 54.5585 214.837 54.7399 214.815 54.8679H207.887C207.93 55.4119 208.079 55.8972 208.335 56.3239C208.602 56.7399 208.943 57.0705 209.359 57.3159C209.775 57.5505 210.223 57.6679 210.703 57.6679C211.215 57.6679 211.695 57.5399 212.143 57.2839C212.602 57.0279 212.917 56.6919 213.087 56.2759L214.303 56.6119C214.037 57.2305 213.573 57.7372 212.911 58.1319C212.25 58.5265 211.498 58.7239 210.655 58.7239ZM207.839 53.8919H213.535C213.493 53.3479 213.338 52.8679 213.071 52.4519C212.805 52.0359 212.463 51.7105 212.047 51.4759C211.631 51.2412 211.173 51.1239 210.671 51.1239C210.181 51.1239 209.727 51.2412 209.311 51.4759C208.895 51.7105 208.554 52.0359 208.287 52.4519C208.031 52.8679 207.882 53.3479 207.839 53.8919Z" fill="#64B0CE"/>
<path d="M220.171 60.5319V57.3159H220.347C220.657 57.3159 220.934 57.1879 221.179 56.9319C221.435 56.6652 221.643 56.1959 221.803 55.5239C221.963 54.8412 222.059 53.8759 222.091 52.6279L222.171 50.2119H227.851V57.3159H228.987V60.5319H227.739V58.5639H221.419V60.5319H220.171ZM222.315 57.3159H226.443V51.4599H223.419L223.371 52.7559C223.329 54.1212 223.217 55.1559 223.035 55.8599C222.865 56.5639 222.625 57.0492 222.315 57.3159Z" fill="#64B0CE"/>
<path d="M230.856 58.5639V50.2119H235.176C235.678 50.2119 236.094 50.3132 236.424 50.5159C236.755 50.7079 237 50.9585 237.16 51.2679C237.331 51.5772 237.416 51.9079 237.416 52.2599C237.416 52.7079 237.31 53.1132 237.096 53.4759C236.883 53.8279 236.574 54.0945 236.168 54.2759C236.648 54.4145 237.038 54.6652 237.336 55.0279C237.635 55.3799 237.784 55.8172 237.784 56.3399C237.784 57.0439 237.534 57.5932 237.032 57.9879C236.542 58.3719 235.896 58.5639 235.096 58.5639H230.856ZM232.2 53.8919H234.808C235.182 53.8919 235.486 53.7532 235.72 53.4759C235.966 53.1879 236.088 52.8625 236.088 52.4999C236.088 52.1479 235.971 51.8439 235.736 51.5879C235.512 51.3319 235.219 51.2039 234.856 51.2039H232.2V53.8919ZM232.2 57.5719H235.064C235.448 57.5719 235.768 57.4332 236.024 57.1559C236.291 56.8785 236.424 56.5585 236.424 56.1959C236.424 55.8225 236.296 55.5025 236.04 55.2359C235.795 54.9585 235.486 54.8199 235.112 54.8199H232.2V57.5719Z" fill="#64B0CE"/>
<path d="M243.592 58.7239C242.76 58.7239 242.024 58.5265 241.384 58.1319C240.744 57.7372 240.242 57.2092 239.88 56.5479C239.517 55.8865 239.336 55.1665 239.336 54.3879C239.336 53.5985 239.517 52.8785 239.88 52.2279C240.242 51.5772 240.744 51.0545 241.384 50.6599C242.034 50.2652 242.776 50.0679 243.608 50.0679C244.45 50.0679 245.181 50.2705 245.8 50.6759C246.429 51.0705 246.914 51.5932 247.256 52.2439C247.608 52.8839 247.784 53.5772 247.784 54.3239C247.784 54.5585 247.773 54.7399 247.752 54.8679H240.824C240.866 55.4119 241.016 55.8972 241.272 56.3239C241.538 56.7399 241.88 57.0705 242.296 57.3159C242.712 57.5505 243.16 57.6679 243.64 57.6679C244.152 57.6679 244.632 57.5399 245.08 57.2839C245.538 57.0279 245.853 56.6919 246.024 56.2759L247.24 56.6119C246.973 57.2305 246.509 57.7372 245.848 58.1319C245.186 58.5265 244.434 58.7239 243.592 58.7239ZM240.776 53.8919H246.472C246.429 53.3479 246.274 52.8679 246.008 52.4519C245.741 52.0359 245.4 51.7105 244.984 51.4759C244.568 51.2412 244.109 51.1239 243.608 51.1239C243.117 51.1239 242.664 51.2412 242.248 51.4759C241.832 51.7105 241.49 52.0359 241.224 52.4519C240.968 52.8679 240.818 53.3479 240.776 53.8919Z" fill="#64B0CE"/>
<path d="M254.165 58.7239C253.482 58.7239 252.874 58.5532 252.341 58.2119C251.807 57.8705 251.386 57.4385 251.077 56.9159V61.9719H249.669V50.2119H250.917V51.7799C251.247 51.2679 251.679 50.8572 252.213 50.5479C252.746 50.2279 253.327 50.0679 253.957 50.0679C254.533 50.0679 255.061 50.1852 255.541 50.4199C256.021 50.6545 256.437 50.9745 256.789 51.3799C257.141 51.7852 257.413 52.2492 257.605 52.7719C257.807 53.2839 257.909 53.8225 257.909 54.3879C257.909 55.1772 257.749 55.9025 257.429 56.5639C257.119 57.2252 256.682 57.7532 256.117 58.1479C255.551 58.5319 254.901 58.7239 254.165 58.7239ZM253.733 57.5079C254.287 57.5079 254.767 57.3585 255.173 57.0599C255.578 56.7612 255.893 56.3719 256.117 55.8919C256.351 55.4119 256.469 54.9105 256.469 54.3879C256.469 53.8225 256.341 53.3052 256.085 52.8359C255.839 52.3665 255.498 51.9932 255.061 51.7159C254.634 51.4279 254.149 51.2839 253.605 51.2839C253.274 51.2839 252.922 51.3692 252.549 51.5399C252.186 51.7105 251.866 51.9399 251.589 52.2279C251.322 52.5052 251.151 52.8145 251.077 53.1559V55.5399C251.311 56.0945 251.669 56.5639 252.149 56.9479C252.639 57.3212 253.167 57.5079 253.733 57.5079Z" fill="#64B0CE"/>
<path d="M259.941 58.5639V50.2279H261.349V56.6759L266.021 50.2119H267.301V58.5639H265.893V52.2439L261.285 58.5639H259.941Z" fill="#64B0CE"/>
<path d="M54.4152 0L16.9058 16.4002L31.6982 30.4127L35.9246 34.3876L77.1322 16.4002L54.4152 0Z" fill="#64B0CE"/>
<path d="M43.3209 10.0518L31.6982 15.3422V38.6199L43.3209 33.3295V10.0518Z" fill="#FFFFFE"/>
<path d="M43.3198 11.4199L37.3198 16.3534V33.4199L43.3198 31.1537V11.4199Z" fill="#FCA789"/>
<path d="M42.3198 13.4199L38.3198 16.4199V32.4199L42.3198 30.9199V13.4199Z" fill="#FF8256"/>
<path d="M33.8113 47.0847L0 15.3423V49.2008L33.8113 78.8271V47.0847Z" fill="#64B0CE"/>
<path d="M85.5851 25.9231L33.8115 47.0847V78.8271L58.1134 69.3044V47.0847L66.5662 43.9105V65.0721L85.5851 56.6074V25.9231Z" fill="#075892"/>
<path d="M79.2452 43.9104L66.5659 43.9104V65.072H79.2452V43.9104Z" fill="#FF8256"/>
</svg>
