<?xml version="1.0" encoding="utf-8"?>
<!-- Generator: Adobe Illustrator 24.1.2, SVG Export Plug-In . SVG Version: 6.00 Build 0)  -->
<svg version="1.1" id="Слой_1" xmlns="http://www.w3.org/2000/svg" xmlns:xlink="http://www.w3.org/1999/xlink" x="0px" y="0px"
	 viewBox="0 0 269 79" style="enable-background:new 0 0 269 79;" xml:space="preserve">
<style type="text/css">
	.st0{fill:#64B0CE;}
	.st1{fill:#FCA789;}
	.st2{fill:#FF8256;}
	.st3{fill:#075892;}
</style>
<polygon class="st0" points="31.7,15.3 43.3,10.1 43.3,31.2 76.7,17 54.4,0 15.3,15.3 31.7,30.4 "/>
<path class="st1" d="M43.3,11.4l-6,4.9v17.1l6-2.3V11.4z"/>
<path class="st2" d="M43.3,10.1l-6,4.9v18.4l6-2.3V10.1z"/>
<path class="st2" d="M42.3,12.2l-4,3.3v16.8l4-1.5V12.2z"/>
<path class="st0" d="M33.8,47.1L0,15.3v33.9l33.8,29.6V47.1z"/>
<path class="st3" d="M85.6,25.9L33.8,47.1v31.7l24.3-9.5V47.1l8.5-3.2v21.2l19-8.5V25.9z"/>
<path class="st2" d="M79.2,43.9H66.6v21.2h12.7L79.2,43.9L79.2,43.9z"/>
<path class="st3" d="M96.8,24H109v15h1.9v7h-3.2v-4H96.5v4h-3.2v-7c0.5,0,1.1-0.2,1.6-0.6c0.5-0.4,0.9-1.1,1.3-1.9
	c0.2-0.6,0.4-1.2,0.5-2s0.2-1.7,0.2-2.8L96.8,24L96.8,24z M100.2,27v4.8c0,1.2-0.1,2.2-0.2,3s-0.3,1.5-0.5,2.1
	c-0.2,0.4-0.4,0.8-0.6,1.2c-0.2,0.3-0.5,0.7-0.8,0.9h7.3V27H100.2z"/>
<path class="st3" d="M114.2,24h4.5c1.1,0,2,0.1,2.7,0.3c0.7,0.2,1.3,0.5,1.7,0.8c0.5,0.4,0.9,1,1.2,1.6c0.3,0.6,0.5,1.4,0.5,2.1
	c0,0.8-0.2,1.5-0.6,2.1s-0.8,1.1-1.5,1.4c0.5,0.1,0.9,0.2,1.3,0.4s0.7,0.4,1.1,0.7c0.4,0.4,0.8,0.9,1,1.5s0.3,1.2,0.3,1.8
	c0,0.7-0.1,1.4-0.4,2.1c-0.3,0.6-0.6,1.1-1.1,1.6c-0.6,0.5-1.2,0.9-2,1.1c-0.7,0.2-1.6,0.4-2.6,0.4h-6L114.2,24L114.2,24z
	 M117.7,26.9v4.6h1c0.9,0,1.6-0.2,2-0.6c0.5-0.4,0.7-1,0.7-1.8c0-0.7-0.2-1.3-0.7-1.6c-0.5-0.4-1.1-0.6-2-0.6H117.7z M117.7,34.2v5
	h1.5c0.6,0,1,0,1.4-0.1s0.7-0.2,1-0.4s0.6-0.5,0.8-0.9s0.3-0.8,0.3-1.2c0-0.5-0.1-0.9-0.4-1.2c-0.2-0.4-0.5-0.6-0.9-0.8
	c-0.3-0.1-0.6-0.2-0.9-0.3s-0.8-0.1-1.5-0.1H117.7z"/>
<path class="st3" d="M140.7,24v3h-6.5v4h6.2v3h-6.2v5h6.5v3h-10V24H140.7z"/>
<path class="st3" d="M145.2,24h5.2c1.2,0,2.2,0.1,2.8,0.3c0.7,0.2,1.3,0.6,1.9,1.1c0.6,0.5,1,1.2,1.4,1.9c0.3,0.7,0.5,1.5,0.5,2.4
	c0,0.8-0.1,1.5-0.4,2.2c-0.3,0.7-0.6,1.3-1.1,1.8s-1.2,0.9-1.9,1.2s-1.6,0.4-2.6,0.4h-2.3V42h-3.5L145.2,24L145.2,24z M148.7,27v5.3
	h1.4c0.6,0,1.1,0,1.4-0.1c0.3-0.1,0.6-0.2,0.9-0.4c0.3-0.2,0.5-0.5,0.7-0.9s0.3-0.8,0.3-1.2c0-0.4-0.1-0.8-0.3-1.2
	c-0.2-0.4-0.4-0.7-0.7-0.9c-0.3-0.2-0.6-0.3-1-0.4s-0.9-0.2-1.5-0.2H148.7z"/>
<path class="st3" d="M160.7,24h3.5v12.1l9.9-12.5h2.4V42H173V29.8l-9.9,12.5h-2.4L160.7,24L160.7,24z"/>
<path class="st3" d="M187.1,24h4.1l4.6,9.1l3.9-9.1h3.8l-8.3,18h-3.8l2.5-5L187.1,24z"/>
<path class="st3" d="M217.6,24v7h7.6v-7h3.5v18h-3.5v-8h-7.6v8h-3.5V24H217.6z"/>
<path class="st3" d="M246.1,42l-1.6-3.8h-7.3l-1.6,3.8h-3.8l7.8-18.4h2.6l7.6,18.4H246.1z M238.4,35.4h5.1l-2.5-6.5L238.4,35.4z"/>
<path class="st3" d="M266.2,37.2v4.1c-0.7,0.4-1.4,0.6-2.2,0.8c-0.7,0.2-1.5,0.3-2.3,0.3c-1.4,0-2.6-0.2-3.6-0.6
	c-1.1-0.4-2.1-1-3-1.9c-1-1-1.8-2-2.2-3.1s-0.7-2.4-0.7-3.8c0-1.4,0.2-2.7,0.7-3.9c0.5-1.2,1.2-2.3,2.2-3.2c0.9-0.8,1.8-1.4,2.9-1.8
	s2.3-0.6,3.7-0.6c0.8,0,1.5,0.1,2.3,0.3c0.7,0.2,1.5,0.4,2.2,0.8v4.1c-0.6-0.7-1.3-1.2-2.1-1.5c-0.8-0.3-1.5-0.5-2.3-0.5
	c-1.8,0-3.2,0.6-4.3,1.9c-1.1,1.2-1.6,2.7-1.6,4.4c0,1.9,0.6,3.4,1.8,4.5c1.2,1.1,2.7,1.6,4.3,1.6c0.8,0,1.6-0.1,2.3-0.5
	C265,38.4,265.6,37.9,266.2,37.2z"/>
<path class="st0" d="M95.7,55.3l-1,4.7h-1.4l1.9-8.6l3.1,6.3l3.1-6.3l1.9,8.6h-1.4l-1-4.7l-2.6,5.2L95.7,55.3z"/>
<path class="st0" d="M112.7,58.1c-0.8,1.5-2.1,2.2-3.7,2.2c-0.6,0-1.2-0.1-1.7-0.3s-0.9-0.5-1.3-0.9s-0.6-0.8-0.8-1.4
	c-0.2-0.5-0.3-1.1-0.3-1.8c0-0.6,0.1-1.2,0.3-1.7c0.2-0.5,0.5-1,0.8-1.4c0.4-0.4,0.8-0.7,1.3-0.9s1-0.3,1.6-0.3
	c1.2,0,2.1,0.4,2.8,1.1c0.7,0.8,1.1,1.8,1.1,3.1v0.3h-6.4v0.1c0,0.4,0.1,0.8,0.2,1.2s0.3,0.7,0.6,0.9c0.2,0.3,0.5,0.4,0.8,0.6
	c0.3,0.1,0.7,0.2,1.1,0.2c1.1,0,2-0.6,2.6-1.7L112.7,58.1z M111.2,55.1c0-0.7-0.3-1.3-0.7-1.6c-0.4-0.4-1-0.6-1.8-0.6
	c-0.7,0-1.2,0.2-1.7,0.6c-0.5,0.4-0.7,0.9-0.8,1.6H111.2z"/>
<path class="st0" d="M117.2,55.6L114,52h1.6l3.1,3.6V52h1.4v3.6l3.1-3.6h1.6l-3.2,3.6l3.5,4.4h-1.7l-3.3-4.2V60h-1.4v-4.2l-3.3,4.2
	h-1.7L117.2,55.6z"/>
<path class="st0" d="M126.8,52h1.4v3.6L132,52h1.8l-3.9,3.6l4.3,4.4h-1.9l-4-4.2V60h-1.4v-8H126.8z"/>
<path class="st0" d="M144,56c0,1.2-0.4,2.2-1.3,3c-0.4,0.4-0.9,0.7-1.4,1c-0.5,0.2-1.1,0.3-1.7,0.3c-1.2,0-2.3-0.4-3.1-1.3
	c-0.9-0.9-1.3-1.9-1.3-3.1c0-0.6,0.1-1.1,0.3-1.7c0.2-0.5,0.5-1,1-1.4c0.4-0.4,0.9-0.7,1.4-0.9s1.1-0.3,1.7-0.3
	c0.6,0,1.2,0.1,1.7,0.3s1,0.5,1.4,0.9s0.7,0.9,1,1.4C143.9,54.9,144,55.4,144,56z M142.5,56c0-0.4-0.1-0.8-0.2-1.2
	c-0.1-0.4-0.4-0.7-0.6-1c-0.3-0.3-0.6-0.5-0.9-0.7c-0.4-0.2-0.7-0.2-1.1-0.2c-0.4,0-0.8,0.1-1.2,0.2c-0.4,0.2-0.7,0.4-0.9,0.7
	c-0.3,0.3-0.5,0.6-0.6,1s-0.2,0.8-0.2,1.2s0.1,0.8,0.2,1.2c0.2,0.4,0.4,0.7,0.6,1c0.3,0.3,0.6,0.5,0.9,0.7c0.4,0.2,0.7,0.2,1.1,0.2
	c0.4,0,0.8-0.1,1.1-0.2c0.4-0.2,0.7-0.4,0.9-0.7c0.3-0.3,0.5-0.6,0.6-1C142.4,56.8,142.5,56.4,142.5,56z"/>
<path class="st0" d="M148,55.3l-1,4.7h-1.4l1.9-8.6l3.1,6.3l3.1-6.3l1.9,8.6h-1.4l-1-4.7l-2.6,5.2L148,55.3z"/>
<path class="st0" d="M157.8,52h1.4v3h4.2v-3h1.4v8h-1.4v-3.9h-4.2V60h-1.4V52z"/>
<path class="st0" d="M173.9,58.5c-0.3,0.6-0.7,1-1.2,1.3s-1.1,0.5-1.7,0.5c-0.6,0-1.1-0.1-1.6-0.3s-0.9-0.5-1.2-0.9
	s-0.6-0.8-0.8-1.4c-0.2-0.5-0.3-1.1-0.3-1.8s0.1-1.3,0.3-1.8s0.4-1,0.8-1.4c0.3-0.4,0.7-0.7,1.2-0.9s1-0.3,1.5-0.3
	c1.4,0,2.3,0.6,3,1.8V52h1.4v8H174L173.9,58.5L173.9,58.5z M173.9,56.1c0-0.5-0.1-0.9-0.2-1.2c-0.1-0.4-0.3-0.7-0.6-1
	c-0.2-0.3-0.5-0.5-0.9-0.6c-0.3-0.1-0.7-0.2-1.1-0.2c-0.8,0-1.5,0.3-1.9,0.8c-0.5,0.5-0.7,1.2-0.7,2.1c0,1,0.2,1.7,0.7,2.3
	c0.5,0.5,1.1,0.8,2,0.8c0.8,0,1.5-0.3,1.9-0.8C173.7,57.7,173.9,57,173.9,56.1z"/>
<path class="st0" d="M179.7,53.2h-2.6V52h6.6v1.2h-2.6V60h-1.4V53.2z"/>
<path class="st0" d="M185.6,52h1.4v3h4.2v-3h1.4v8h-1.4v-3.9H187V60h-1.4V52z"/>
<path class="st0" d="M202.2,52h1.4v8h-1.4V52z M195.6,52h1.4v3.3h1.2c0.4,0,0.7,0,1.1,0.1c0.3,0,0.7,0.2,0.9,0.3
	c0.3,0.2,0.6,0.5,0.8,0.9s0.3,0.7,0.3,1.1c0,0.4-0.1,0.7-0.2,1.1c-0.2,0.4-0.4,0.6-0.8,0.9c-0.3,0.2-0.7,0.3-1.1,0.4
	c-0.4,0-0.8,0.1-1.1,0.1h-2.4L195.6,52L195.6,52z M199.3,58.6c0.1-0.1,0.2-0.2,0.3-0.4s0.1-0.4,0.1-0.6c0-0.5-0.2-0.8-0.6-1
	c-0.2-0.1-0.3-0.1-0.5-0.1s-0.4,0-0.7,0h-1.1v2.4h0.8c0.4,0,0.7,0,1,0C198.9,58.8,199.1,58.7,199.3,58.6z"/>
<path class="st0" d="M213.7,58.1c-0.8,1.5-2.1,2.2-3.7,2.2c-0.6,0-1.2-0.1-1.7-0.3s-0.9-0.5-1.3-0.9c-0.4-0.4-0.6-0.8-0.8-1.4
	c-0.2-0.5-0.3-1.1-0.3-1.8c0-0.6,0.1-1.2,0.3-1.7s0.5-1,0.8-1.4c0.4-0.4,0.8-0.7,1.3-0.9s1-0.3,1.6-0.3c1.2,0,2.1,0.4,2.8,1.1
	c0.7,0.8,1.1,1.8,1.1,3.1v0.3h-6.4v0.1c0,0.4,0.1,0.8,0.2,1.2c0.1,0.4,0.3,0.7,0.6,0.9c0.2,0.3,0.5,0.4,0.8,0.6
	c0.3,0.1,0.7,0.2,1.1,0.2c1.1,0,2-0.6,2.6-1.7L213.7,58.1z M212.3,55.1c0-0.7-0.3-1.3-0.7-1.6c-0.4-0.4-1-0.6-1.7-0.6
	s-1.2,0.2-1.7,0.6c-0.5,0.4-0.7,0.9-0.8,1.6H212.3z"/>
<path class="st0" d="M220.5,58.8h0.8c0.2-0.2,0.4-0.5,0.5-0.9s0.2-0.9,0.2-1.3c0-0.5,0.1-0.9,0.1-1.4s0-0.8,0-1.1v-2h5.1v6.8h0.8
	v3.4h-1.3V60h-5v2.2h-1.3L220.5,58.8L220.5,58.8z M225.9,58.8v-5.7h-2.4v1.3c0,0.3,0,0.7,0,1.1c0,0.4,0,0.8-0.1,1.2
	c0,0.4-0.1,0.8-0.2,1.1c-0.1,0.4-0.2,0.7-0.4,1C222.8,58.8,225.9,58.8,225.9,58.8z"/>
<path class="st0" d="M230.3,52h2.2c0.5,0,0.9,0,1.2,0.1c0.4,0,0.7,0.2,1,0.4s0.5,0.5,0.7,0.8s0.3,0.6,0.3,1s-0.1,0.7-0.3,0.9
	c-0.2,0.3-0.5,0.5-0.9,0.6l0,0c0.5,0.2,0.9,0.4,1.1,0.7c0.3,0.3,0.4,0.7,0.4,1.2c0,0.3-0.1,0.7-0.2,1c-0.1,0.3-0.3,0.5-0.6,0.7
	c-0.3,0.3-0.8,0.5-1.2,0.5c-0.5,0.1-1,0.1-1.6,0.1h-2.2v-8H230.3z M234.2,54.3c0-0.5-0.1-0.8-0.4-0.9c-0.3-0.2-0.7-0.2-1.4-0.2h-0.8
	v2.2h0.8c0.7,0,1.2-0.1,1.4-0.2C234.1,54.9,234.2,54.6,234.2,54.3z M234.1,58.6c0.1-0.1,0.3-0.2,0.3-0.4c0.1-0.2,0.1-0.4,0.1-0.6
	c0-0.5-0.2-0.8-0.6-1.1c-0.2-0.1-0.4-0.1-0.5-0.2c-0.2,0-0.4,0-0.7,0h-1.1v2.5h0.8c0.4,0,0.8,0,1,0S233.9,58.7,234.1,58.6z"/>
<path class="st0" d="M245.5,58.1c-0.8,1.5-2.1,2.2-3.7,2.2c-0.6,0-1.2-0.1-1.7-0.3s-0.9-0.5-1.3-0.9c-0.4-0.4-0.6-0.8-0.8-1.4
	c-0.2-0.5-0.3-1.1-0.3-1.8c0-0.6,0.1-1.2,0.3-1.7s0.5-1,0.8-1.4c0.4-0.4,0.8-0.7,1.3-0.9s1-0.3,1.6-0.3c1.2,0,2.1,0.4,2.8,1.1
	c0.7,0.8,1.1,1.8,1.1,3.1v0.3h-6.4v0.1c0,0.4,0.1,0.8,0.2,1.2c0.1,0.4,0.3,0.7,0.6,0.9c0.2,0.3,0.5,0.4,0.8,0.6
	c0.3,0.1,0.7,0.2,1.1,0.2c1.1,0,2-0.6,2.6-1.7L245.5,58.1z M244.1,55.1c0-0.7-0.3-1.3-0.7-1.6c-0.4-0.4-1-0.6-1.7-0.6
	s-1.2,0.2-1.7,0.6c-0.5,0.4-0.7,0.9-0.8,1.6H244.1z"/>
<path class="st0" d="M247.9,52h1.3v1.5c0.3-0.6,0.7-1,1.2-1.3s1.1-0.5,1.7-0.5c0.6,0,1.1,0.1,1.6,0.3s0.9,0.5,1.2,0.9
	s0.6,0.8,0.8,1.4c0.2,0.5,0.3,1.1,0.3,1.8s-0.1,1.3-0.3,1.8s-0.4,1-0.8,1.4c-0.3,0.4-0.7,0.7-1.2,0.9s-1,0.3-1.6,0.3
	c-1.3,0-2.3-0.6-3-1.8v5.4h-1.4V52H247.9z M254.5,56.2c0-1-0.2-1.8-0.7-2.3c-0.5-0.6-1.1-0.8-1.9-0.8c-0.8,0-1.5,0.3-2,0.8
	s-0.7,1.3-0.7,2.2s0.3,1.6,0.8,2.2c0.5,0.5,1.2,0.8,2,0.8s1.4-0.2,1.9-0.7C254.3,57.8,254.5,57.1,254.5,56.2z"/>
<path class="st0" d="M258.4,52h1.4v5.4l6-5.9V60h-1.4v-5.4l-6,5.9V52z"/>
</svg>
