<svg width="482" height="481" viewBox="0 0 482 481" fill="none" xmlns="http://www.w3.org/2000/svg">
<g filter="url(#filter0_i)">
<path d="M347.878 26.4899L338.099 36.2493L318.539 16.7305L298.98 36.2493L279.42 15.3363L0 294.177L142.504 436.386L162.064 416.867L181.623 436.386L201.183 416.867L210.962 426.626L480.603 157.545L347.878 26.4899ZM142.504 415.473L19.5594 292.783L279.42 34.8551L289.2 44.6146L39.1188 295.571L150.887 407.107L142.504 415.473ZM78.2377 295.571L190.006 407.107L181.623 416.867L58.6783 294.177L318.539 36.2493L328.319 46.0088L78.2377 295.571ZM325.525 273.264C300.377 298.36 259.861 298.36 234.713 273.264C209.565 248.168 209.565 207.736 234.713 182.641C259.861 157.545 300.377 157.545 325.525 182.641C349.275 207.736 349.275 248.168 325.525 273.264ZM262.655 204.948L278.023 220.284L280.817 217.496C289.2 210.525 296.185 206.342 300.377 204.948C305.965 204.948 311.554 207.736 317.142 213.313C324.128 220.284 326.922 225.861 326.922 231.438C326.922 237.015 322.73 243.986 315.745 250.957L312.951 253.745L319.936 260.716L312.951 267.687L307.362 260.716L305.965 262.11C298.98 269.081 291.994 273.264 286.406 274.658C280.817 274.658 275.229 271.87 268.243 266.293L265.449 264.899L275.229 253.745L276.626 255.139C280.817 259.322 283.612 260.716 286.406 260.716C289.2 260.716 291.994 257.928 296.186 253.745L297.583 252.351L280.817 235.62C272.435 243.986 265.449 248.168 259.861 249.562C254.272 250.957 248.684 246.774 241.699 241.197C234.713 234.226 231.919 228.649 233.316 223.073C233.316 217.496 238.904 210.525 245.89 202.159L240.301 196.583L247.287 189.612L252.875 195.188C261.258 186.823 266.846 182.641 272.435 182.641C278.023 181.246 283.612 184.035 289.2 191.006L290.597 192.4L280.817 202.159L279.42 200.765C275.229 196.583 269.641 196.583 264.052 202.159L262.655 204.948ZM255.67 211.919L254.272 213.313C248.684 220.284 247.287 225.861 252.875 230.044C258.464 235.62 264.052 234.226 269.641 228.649C269.641 228.649 269.641 228.649 271.038 227.255L255.67 211.919ZM304.568 245.38L305.965 243.986C312.951 237.015 312.951 231.438 307.362 225.861C304.568 223.073 301.774 221.678 298.98 221.678C296.185 221.678 293.391 224.467 287.803 230.044L304.568 245.38Z" fill="white"/>
</g>
<defs>
<filter id="filter0_i" x="-9" y="0" width="491" height="481" filterUnits="userSpaceOnUse" color-interpolation-filters="sRGB">
<feFlood flood-opacity="0" result="BackgroundImageFix"/>
<feBlend mode="normal" in="SourceGraphic" in2="BackgroundImageFix" result="shape"/>
<feColorMatrix in="SourceAlpha" type="matrix" values="0 0 0 0 0 0 0 0 0 0 0 0 0 0 0 0 0 0 127 0" result="hardAlpha"/>
<feOffset dx="-9"/>
<feGaussianBlur stdDeviation="4.5"/>
<feComposite in2="hardAlpha" operator="arithmetic" k2="-1" k3="1"/>
<feColorMatrix type="matrix" values="0 0 0 0 0 0 0 0 0 0 0 0 0 0 0 0 0 0 0.25 0"/>
<feBlend mode="normal" in2="shape" result="effect1_innerShadow"/>
</filter>
</defs>
</svg>
