<svg xmlns="http://www.w3.org/2000/svg" xmlns:xlink="http://www.w3.org/1999/xlink" width="30.68" height="27.031" viewBox="0 0 30.68 27.031">
  <defs>
    <style>
      .cls-1 {
        fill: #fff;
        fill-rule: evenodd;
        filter: url(#filter);
      }
    </style>
    <filter id="filter" x="1102.13" y="243" width="30.68" height="27.031" filterUnits="userSpaceOnUse">
      <feGaussianBlur result="blur" stdDeviation="1.732" in="SourceAlpha"/>
      <feFlood result="flood" flood-opacity="0.3"/>
      <feComposite result="composite" operator="out" in2="blur"/>
      <feOffset result="offset" dx="-1.891" dy="-0.651"/>
      <feComposite result="composite-2" operator="in" in2="SourceAlpha"/>
      <feBlend result="blend" mode="multiply" in2="SourceGraphic"/>
    </filter>
  </defs>
  <path id="money" class="cls-1" d="M1124.33,243.7l-0.62.627-1.25-1.254-1.25,1.254-1.24-1.344L1102.14,260.9l9.09,9.137,1.25-1.254,1.25,1.254,1.24-1.254,0.63,0.627,17.2-17.288Zm-13.1,24.991-7.84-7.882,16.58-16.572,0.62,0.627-15.96,16.124,7.13,7.166Zm-4.1-7.7,7.13,7.166-0.53.627-7.85-7.883,16.58-16.571,0.63,0.627Zm15.78-1.433a4.083,4.083,0,0,1-5.8,0,4.132,4.132,0,0,1,0-5.823,4.083,4.083,0,0,1,5.8,0A4.309,4.309,0,0,1,1122.91,259.558Zm-4.01-4.39,0.98,0.986,0.18-.179a4.589,4.589,0,0,1,1.24-.807,1.523,1.523,0,0,1,1.07.538,1.679,1.679,0,0,1,.63,1.164,2.034,2.034,0,0,1-.72,1.254l-0.17.18,0.44,0.447-0.44.448-0.36-.448-0.09.09a2.91,2.91,0,0,1-1.25.806,1.942,1.942,0,0,1-1.16-.537l-0.18-.09,0.63-.716,0.09,0.089a0.9,0.9,0,0,0,.62.358,1.17,1.17,0,0,0,.63-0.447l0.08-.09-1.06-1.075a3.194,3.194,0,0,1-1.34.9,1.5,1.5,0,0,1-1.16-.538,1.287,1.287,0,0,1-.54-1.164,2.769,2.769,0,0,1,.81-1.344l-0.36-.358,0.45-.448,0.35,0.358a2.054,2.054,0,0,1,1.25-.806,1.068,1.068,0,0,1,1.07.538l0.09,0.089-0.62.627-0.09-.089a0.635,0.635,0,0,0-.98.089Zm-0.45.448-0.09.09c-0.36.448-.44,0.806-0.09,1.075a0.671,0.671,0,0,0,1.07-.09l0.09-.089Zm3.12,2.15,0.09-.09a0.714,0.714,0,0,0,.09-1.164,0.78,0.78,0,0,0-.54-0.269,1.441,1.441,0,0,0-.71.538Z" transform="translate(-1102.13 -243)"/>
</svg>
