<svg xmlns="http://www.w3.org/2000/svg" width="30.665" height="27.051" viewBox="0 0 30.665 27.051">
  <path id="money" d="M1124.334,243.7l-.624.627-1.248-1.254-1.248,1.254-1.248-1.344L1102.137,260.9l9.093,9.137,1.248-1.254,1.248,1.254,1.248-1.254.624.627,17.2-17.288Zm-13.1,24.991-7.845-7.882,16.581-16.571.624.627-15.957,16.123,7.131,7.166Zm-4.1-7.7,7.131,7.166-.535.627-7.845-7.882,16.581-16.571.624.627Zm15.778-1.433a4.075,4.075,0,0,1-5.794,0,4.123,4.123,0,0,1,0-5.822,4.075,4.075,0,0,1,5.794,0A4.3,4.3,0,0,1,1122.908,259.558Zm-4.012-4.389.981.985.178-.179a4.54,4.54,0,0,1,1.248-.806,1.538,1.538,0,0,1,1.07.537,1.684,1.684,0,0,1,.624,1.164,2.04,2.04,0,0,1-.713,1.254l-.178.179.446.448-.446.448-.357-.448-.089.09a2.909,2.909,0,0,1-1.248.806,1.913,1.913,0,0,1-1.159-.537l-.178-.09.624-.717.089.09c.267.269.446.358.624.358s.357-.179.624-.448l.089-.09-1.07-1.075a3.113,3.113,0,0,1-1.337.9c-.357.089-.713-.179-1.159-.538-.446-.448-.624-.806-.535-1.165,0-.358.356-.806.8-1.344l-.357-.358.446-.448.357.358c.535-.538.891-.806,1.248-.806q.535-.135,1.07.537l.089.089-.624.627-.089-.09c-.267-.269-.624-.269-.981.09Zm-.446.448-.089.09c-.357.448-.446.806-.089,1.075.357.358.713.269,1.07-.09l.089-.089Zm3.12,2.15.089-.09c.446-.448.446-.806.089-1.165a.769.769,0,0,0-.535-.269c-.178,0-.357.179-.713.538Z" transform="translate(-1102.137 -242.986)" fill="#fff"/>
</svg>
