<svg xmlns="http://www.w3.org/2000/svg" width="20" height="23.001" viewBox="0 0 20 23.001">
  <g id="Векторный_смарт-объект" data-name="Векторный смарт-объект" transform="translate(-886 -447.999)">
    <g id="Векторный_смарт-объект-2" data-name="Векторный смарт-объект" transform="translate(879.176 407.195)">
      <g id="Сгруппировать_3" data-name="Сгруппировать 3">
        <path id="Контур_19" data-name="Контур 19" d="M25.891,47.434a3.638,3.638,0,0,0-1.045-.785,5.229,5.229,0,0,0-.8-.327L24,46.306h0l-.163-.05q-.222-.063-.457-.114t-.484-.089a12.268,12.268,0,0,0-1.9-.135H15.248a.933.933,0,0,0-.4.088.9.9,0,0,0-.51.668l-1.223,7.55-.035.22-1.1,6.811-.312,1.931a.541.541,0,0,0,.543.62H16.03a.912.912,0,0,0,.907-.755l.038-.189.719-4.445.046-.244a.911.911,0,0,1,.907-.756h.571c3.7,0,6.593-1.463,7.439-5.7A4.753,4.753,0,0,0,25.891,47.434Z" fill="#253b80"/>
        <path id="Контур_20" data-name="Контур 20" d="M12.037,54.057l1.222-7.547a1.967,1.967,0,0,1,1.118-1.467,2.037,2.037,0,0,1,.871-.193H21A13.407,13.407,0,0,1,23.068,45c.184.029.367.063.55.1s.355.083.53.133c.085.025.168.05.248.076.193.062.377.133.555.208a4.087,4.087,0,0,0-1.1-2.978c-1.094-1.214-3.068-1.734-5.6-1.734H10.923a1.041,1.041,0,0,0-1.036.864L6.832,60.544a.62.62,0,0,0,.622.71h3.42l.027-.166L12,54.279Z" fill="#253b80"/>
      </g>
    </g>
    <path id="Color_Overlay" data-name="Color Overlay" d="M891.389,471a.542.542,0,0,1-.544-.62l.312-1.931,1.1-6.811.035-.22,1.223-7.55a.894.894,0,0,1,.51-.668.928.928,0,0,1,.4-.088h5.749a12.216,12.216,0,0,1,1.9.135q.248.039.484.089c.157.034.309.073.456.114l.164.05h0l.054.016a5.29,5.29,0,0,1,.8.327,3.641,3.641,0,0,1,1.044.785,4.754,4.754,0,0,1,.765,4.285c-.846,4.235-3.741,5.7-7.439,5.7h-.571a.911.911,0,0,0-.907.756l-.046.244-.718,4.445-.038.188a.912.912,0,0,1-.907.755Zm-4.76-2.551a.62.62,0,0,1-.621-.711l3.055-18.875A1.041,1.041,0,0,1,890.1,448h7.334c2.527,0,4.5.52,5.6,1.734a4.085,4.085,0,0,1,1.1,2.978c-.177-.076-.362-.147-.554-.209-.08-.026-.164-.051-.248-.076-.176-.049-.351-.094-.53-.133s-.366-.073-.55-.1a13.448,13.448,0,0,0-2.071-.148h-5.749a2.04,2.04,0,0,0-.87.193,1.968,1.968,0,0,0-1.118,1.467l-1.223,7.547-.035.223-1.1,6.809-.027.166Z" fill="#aaa"/>
  </g>
</svg>
