<svg xmlns="http://www.w3.org/2000/svg" width="12.397" height="15.595" viewBox="0 0 12.397 15.595">
  <path id="placeholder" d="M395.818,19.988a25.562,25.562,0,0,1-2.873-2.831C390.991,14.9,390,12.865,390,11.122v-.173a6.2,6.2,0,1,1,12.4,0v.172c0,1.742-.991,3.773-2.946,6.035a25.517,25.517,0,0,1-2.873,2.83l-.38.31Zm-4.609-9.038v.172c0,2.945,3.764,6.509,4.989,7.592,1.225-1.083,4.989-4.647,4.989-7.592V10.95a4.989,4.989,0,1,0-9.977,0Zm2.117,0a2.872,2.872,0,1,1,2.872,2.9A2.886,2.886,0,0,1,393.326,10.949Zm1.209,0A1.663,1.663,0,1,0,396.2,9.274,1.672,1.672,0,0,0,394.535,10.949Z" transform="translate(-390 -4.703)" fill="#64b0ce"/>
</svg>
