<svg xmlns="http://www.w3.org/2000/svg" width="22" height="23.001" viewBox="0 0 22 23.001">
  <g id="Векторный_смарт-объект" data-name="Векторный смарт-объект" transform="translate(-576 -447.999)">
    <g id="Векторный_смарт-объект-2" data-name="Векторный смарт-объект" transform="translate(495.386 431.719)">
      <path id="Контур_13" data-name="Контур 13" d="M98.917,32.164a3.719,3.719,0,0,0-1.192-2.083,3.054,3.054,0,0,0-.72-.521,2.556,2.556,0,0,0-.422-.2,2.529,2.529,0,0,0-1.192-.2,2.3,2.3,0,0,1,.994-.124,4.7,4.7,0,0,1,.843.2q.338.183.671.372a8.241,8.241,0,0,0-.273-5.28,9.445,9.445,0,0,0-2.557-3.718,8.517,8.517,0,0,0-4.146-2.132,6.856,6.856,0,0,0-2.732.025,6.122,6.122,0,0,0-2.11,1.016,6.269,6.269,0,0,0-1.465,1.686,3.491,3.491,0,0,0-.3.5c-.076.188-.162.367-.248.545a7.735,7.735,0,0,0-.348,1.215,7.85,7.85,0,0,0-.1,2.8,9.234,9.234,0,0,0,.671,2.454c.18.349.345.713.545,1.041a10.063,10.063,0,0,0,.646.917,9.292,9.292,0,0,0,1.663,1.463A9.117,9.117,0,0,0,91.866,33.7c.039-.081-.054-.243-.074-.347-.03-.119-.042-.256-.075-.372a3.639,3.639,0,0,1,0-.843c.079.021.077.122.125.173s.058.124.124.149a2.78,2.78,0,0,0,.223.347,3.063,3.063,0,0,0,.571.57,4.154,4.154,0,0,0,.67.471,4.059,4.059,0,0,0,.745.372,5.892,5.892,0,0,0,1.812.446c.663.09,1.3.2,1.911.347a7.354,7.354,0,0,1,1.589.669,6.413,6.413,0,0,1,.695.447,1.853,1.853,0,0,1,.323.248c.131.052.188.176.323.223a10.28,10.28,0,0,1,1.093,1.165,5.327,5.327,0,0,1,.422.72c.091.1.117.263.2.371.005.141.142.31.025.421-.184.027-.147-.167-.223-.248a1.494,1.494,0,0,1-.175-.3c-.29-.3-.55-.64-.868-.917a6.851,6.851,0,0,0-.993-.769,7.5,7.5,0,0,0-2.433-1.116,9.151,9.151,0,0,0-3.153-.3,7.094,7.094,0,0,0-1.465.322,13.725,13.725,0,0,1-1.514.248,12.58,12.58,0,0,1-5.81-1.09,9.131,9.131,0,0,1-2.184-1.363,6.85,6.85,0,0,1-.919-.868,5.757,5.757,0,0,1-.745-1.017,9.952,9.952,0,0,1-.646-1.14,10.26,10.26,0,0,1-.447-1.314,6.583,6.583,0,0,1-.3-1.487c-.009-.149-.076-.436-.075-.669,0-.021.027-.039.025-.074a2.383,2.383,0,0,1,0-.719,7.523,7.523,0,0,1,.174-1.562,9.083,9.083,0,0,1,.373-1.388c.148-.447.343-.847.521-1.264.12-.178.21-.385.323-.57.095-.194.237-.341.323-.545.1-.054.112-.185.2-.248.039-.111.142-.156.174-.273a.847.847,0,0,0,.2-.248.771.771,0,0,0,.2-.248c.3-.291.561-.614.869-.892s.651-.54.969-.818c.2-.1.347-.248.546-.347.151-.138.371-.208.521-.347a12.706,12.706,0,0,1,1.217-.57,9.677,9.677,0,0,1,1.291-.471,10.533,10.533,0,0,1,3.1-.372c.043.005.064-.042.074,0a9.768,9.768,0,0,1,5.289,1.661,9.374,9.374,0,0,1,3.228,3.693,9.734,9.734,0,0,1,.82,5.776,11.677,11.677,0,0,1-.82,2.652,11.823,11.823,0,0,1-.621,1.116,3.3,3.3,0,0,1-.347.521,1.042,1.042,0,0,1-.173.248,1.3,1.3,0,0,1-.1.124c-.011.022-.022.044-.05.05C98.949,32.183,98.919,32.19,98.917,32.164Z" fill="#f07600" fill-rule="evenodd"/>
      <path id="Контур_14" data-name="Контур 14" d="M98.321,32.808c-.291-.114-.34-.47-.472-.744a.606.606,0,0,1,0-.347c.02,0,.025-.025.05-.025.073-.047.143.012.248.05a1.528,1.528,0,0,1,.3.62C98.45,32.557,98.465,32.762,98.321,32.808Z" fill="#f07600" fill-rule="evenodd"/>
      <path id="Контур_15" data-name="Контур 15" d="M96.136,32.387c0-.028.025-.014.025,0,.44.056.642.35.67.818a.528.528,0,0,1-.422.471.764.764,0,0,1-.72-1.091C95.808,32.489,95.892,32.358,96.136,32.387Z" fill="#f07600" fill-rule="evenodd"/>
    </g>
    <path id="Color_Overlay" data-name="Color Overlay" d="M597.73,470.75a1.491,1.491,0,0,1-.175-.3c-.291-.305-.551-.64-.868-.917a6.833,6.833,0,0,0-.994-.769,7.482,7.482,0,0,0-2.433-1.116,9.139,9.139,0,0,0-3.153-.3,7.065,7.065,0,0,0-1.465.321,13.818,13.818,0,0,1-1.515.248,12.574,12.574,0,0,1-5.81-1.091,9.108,9.108,0,0,1-2.184-1.363,6.765,6.765,0,0,1-.919-.868,5.733,5.733,0,0,1-.745-1.016,10.013,10.013,0,0,1-.645-1.14,10.226,10.226,0,0,1-.447-1.314,6.586,6.586,0,0,1-.3-1.488c-.009-.148-.076-.436-.076-.669,0-.021.027-.04.025-.075a2.4,2.4,0,0,1,0-.718,7.561,7.561,0,0,1,.174-1.562,9.165,9.165,0,0,1,.373-1.388c.148-.447.344-.847.521-1.264.12-.178.211-.385.323-.571.094-.194.237-.341.323-.544.1-.054.113-.185.2-.248.039-.111.142-.157.174-.273a.849.849,0,0,0,.2-.248.78.78,0,0,0,.2-.248c.3-.292.561-.614.868-.892s.652-.54.969-.818c.2-.1.347-.248.545-.347.151-.138.372-.208.521-.347a12.582,12.582,0,0,1,1.217-.57,9.713,9.713,0,0,1,1.292-.472,10.554,10.554,0,0,1,3.1-.372.067.067,0,0,0,.039-.009c.017-.009.029-.018.035.009a9.773,9.773,0,0,1,5.288,1.661,9.377,9.377,0,0,1,3.228,3.694,9.732,9.732,0,0,1,.819,5.776,11.734,11.734,0,0,1-.819,2.652,12.006,12.006,0,0,1-.621,1.115,3.322,3.322,0,0,1-.347.521,1.061,1.061,0,0,1-.174.247,1.212,1.212,0,0,1-.1.124c-.012.022-.022.044-.05.049.007.044-.023.051-.024.025a3.719,3.719,0,0,0-1.193-2.083,3.03,3.03,0,0,0-.72-.521,2.6,2.6,0,0,0-.421-.2,2.537,2.537,0,0,0-1.193-.2,2.292,2.292,0,0,1,.994-.124,4.7,4.7,0,0,1,.843.2q.339.184.67.372a8.237,8.237,0,0,0-.273-5.279,9.437,9.437,0,0,0-2.557-3.719,8.515,8.515,0,0,0-4.146-2.132,6.845,6.845,0,0,0-2.732.025,6.118,6.118,0,0,0-2.11,1.016A6.27,6.27,0,0,0,580,452.926a3.567,3.567,0,0,0-.3.5c-.076.188-.161.367-.247.545a7.692,7.692,0,0,0-.347,1.215,7.833,7.833,0,0,0-.1,2.8,9.2,9.2,0,0,0,.67,2.454c.18.348.345.713.545,1.041a9.961,9.961,0,0,0,.646.917,9.265,9.265,0,0,0,1.663,1.462,9.108,9.108,0,0,0,4.717,1.561c.04-.081-.054-.243-.074-.346-.031-.12-.042-.257-.076-.372a3.669,3.669,0,0,1,0-.843c.079.021.077.121.125.174s.058.123.124.148a2.825,2.825,0,0,0,.223.347,3.081,3.081,0,0,0,.571.57,4.141,4.141,0,0,0,.671.471,4.087,4.087,0,0,0,.745.373,5.93,5.93,0,0,0,1.813.446c.662.089,1.3.2,1.911.346a7.378,7.378,0,0,1,1.589.669,6.315,6.315,0,0,1,.695.447,1.819,1.819,0,0,1,.323.247c.131.051.188.176.323.222a10.3,10.3,0,0,1,1.093,1.165,5.384,5.384,0,0,1,.422.719c.091.1.117.263.2.372.005.14.142.31.025.421l-.033,0C597.773,471,597.8,470.825,597.73,470.75Zm-5.951-5.354a.764.764,0,0,1-.7-1.091c.119-.1.2-.228.447-.2,0-.029.025-.014.025,0,.44.056.643.35.671.817a.529.529,0,0,1-.423.472Zm1.456-1.612a.606.606,0,0,1,0-.346c.021-.005.025-.025.049-.025.074-.047.143.013.248.049a1.521,1.521,0,0,1,.3.62c.005.2.02.4-.123.446C593.416,464.414,593.367,464.057,593.235,463.784Z" fill="#aaa"/>
  </g>
</svg>
