<svg xmlns="http://www.w3.org/2000/svg" width="16.281" height="17.188" viewBox="0 0 16.281 17.188">
  <defs>
    <style>
      .cls-1 {
        fill: #46b333;
        fill-rule: evenodd;
      }
    </style>
  </defs>
  <path id="whatsapp" class="cls-1" d="M73.588,73.814a8.382,8.382,0,0,0-7.749,8.547,8.819,8.819,0,0,0,.887,3.848l-0.865,4.4a0.324,0.324,0,0,0,.384.39l4.115-1.021a7.818,7.818,0,0,0,3.5.89A8.527,8.527,0,0,0,73.588,73.814ZM78.5,87.058a6.2,6.2,0,0,1-4.511,1.956,6.079,6.079,0,0,1-2.839-.7l-0.573-.3-2.523.626,0.531-2.7L68.3,85.367a6.931,6.931,0,0,1,1.175-7.755,6.179,6.179,0,0,1,9.022,0A6.9,6.9,0,0,1,78.5,87.058Zm-0.557-2.873-1.578-.474a0.57,0.57,0,0,0-.582.161l-0.386.411a0.556,0.556,0,0,1-.625.138,8.563,8.563,0,0,1-2.718-2.51,0.625,0.625,0,0,1,.046-0.667l0.337-.456a0.64,0.64,0,0,0,.073-0.626l-0.664-1.572a0.576,0.576,0,0,0-.919-0.22,2.792,2.792,0,0,0-1.027,1.64c-0.112,1.158.362,2.617,2.156,4.37,2.072,2.025,3.731,2.292,4.811,2.018a2.7,2.7,0,0,0,1.411-1.288A0.626,0.626,0,0,0,77.941,84.185Z" transform="translate(-65.844 -73.813)"/>
</svg>
