<svg xmlns="http://www.w3.org/2000/svg" width="23.001" height="22" viewBox="0 0 23.001 22">
  <g id="Векторный_смарт-объект" data-name="Векторный смарт-объект" transform="translate(-1037 -448)">
    <g id="Векторный_смарт-объект-2" data-name="Векторный смарт-объект" transform="translate(962.191 405.714)">
      <path id="Контур_23" data-name="Контур 23" d="M97.773,51.122A1.536,1.536,0,0,0,96.1,49.9c-.281,0-.56.024-.833-.006-.538-.057-.68.125-.676.558.026,2.122.018,4.242.01,6.358a2.95,2.95,0,0,1-2.358,2.538c-3.986.887-7.968,1.789-11.957,2.668a6.2,6.2,0,0,1-1.377.146.762.762,0,0,1-.56-.3c-.056-.1.12-.34.257-.463a2.15,2.15,0,0,1,.65-.352c.731-.265,1.475-.505,2.214-.754,2.959-1,5.925-1.985,8.88-2.989a2.692,2.692,0,0,0,2.075-2.5c.068-3.686.034-7.373.018-11.063a1.349,1.349,0,0,0-.984-1.324,2.658,2.658,0,0,0-2.168.273Q83.01,45.73,76.724,48.763a2.891,2.891,0,0,0-1.915,2.688c.014,3.486,0,6.967.008,10.449a1.682,1.682,0,0,0,.072.517,2.886,2.886,0,0,0,2.961,1.863c2.947.008,5.9,0,8.854,0s5.869,0,8.809,0a2.554,2.554,0,0,0,1.7-.534,1.99,1.99,0,0,0,.588-1.789q.009-5.093,0-10.188A3.383,3.383,0,0,0,97.773,51.122ZM85.517,50.032a2.193,2.193,0,0,1,1.933-1.4,1.144,1.144,0,0,1,1.317.924c.141.922-.994,1.993-2.116,1.989C85.714,51.548,85.192,50.883,85.517,50.032Z"/>
    </g>
    <path id="Color_Overlay" data-name="Color Overlay" d="M1048.9,470c-2.95,0-5.908,0-8.855,0a2.886,2.886,0,0,1-2.961-1.864,1.674,1.674,0,0,1-.072-.517c0-3.482.006-6.962-.008-10.449a2.893,2.893,0,0,1,1.915-2.688q6.29-3.035,12.569-6.073a2.658,2.658,0,0,1,2.168-.273,1.349,1.349,0,0,1,.985,1.324c.016,3.69.05,7.377-.018,11.064a2.692,2.692,0,0,1-2.074,2.5c-2.956,1-5.921,1.991-8.88,2.989-.74.249-1.483.49-2.214.754a2.143,2.143,0,0,0-.65.352c-.138.123-.313.364-.257.463a.763.763,0,0,0,.561.3,6.237,6.237,0,0,0,1.377-.146c3.99-.879,7.971-1.78,11.957-2.668a2.95,2.95,0,0,0,2.357-2.539c.008-2.116.016-4.236-.01-6.358,0-.433.138-.615.676-.558a4.074,4.074,0,0,0,.536.009c.1,0,.2-.005.3,0a1.537,1.537,0,0,1,1.67,1.223,3.421,3.421,0,0,1,.034.649q.005,5.1,0,10.188a1.99,1.99,0,0,1-.588,1.789,2.557,2.557,0,0,1-1.7.534q-2.089.006-4.172,0Zm.745-15.649a2.192,2.192,0,0,0-1.933,1.4c-.325.85.2,1.516,1.134,1.516,1.121,0,2.258-1.067,2.116-1.989a1.129,1.129,0,0,0-1.146-.934A1.331,1.331,0,0,0,1049.641,454.35Z" fill="#aaa"/>
  </g>
</svg>
