<?xml version="1.0" encoding="utf-8"?>
<!-- Generator: Adobe Illustrator 24.1.2, SVG Export Plug-In . SVG Version: 6.00 Build 0)  -->
<svg version="1.1" id="Layer_1" xmlns="http://www.w3.org/2000/svg" xmlns:xlink="http://www.w3.org/1999/xlink" x="0px" y="0px"
	 viewBox="0 0 384 384" style="enable-background:new 0 0 384 384;" xml:space="preserve">
<style type="text/css">
	.st0{stroke:#000000;stroke-width:12.8441;stroke-miterlimit:10;}
</style>
<g>
	<g>
		<path class="st0" d="M347.4,249.8c-22.7,0-44.9-3.6-66.1-10.5c-10.5-3.6-22.5-0.8-29.3,6.2L210.4,277
			c-48.3-25.8-78.1-55.5-103.5-103.4l30.5-40.5c7.9-7.9,10.8-19.5,7.4-30.3c-7-21.2-10.6-43.4-10.6-66.2c0-16.4-13.4-29.7-29.7-29.7
			H38.6c-17.7,0-31.9,14.4-31.8,32C7.9,225.5,160.2,377,347.2,377.1c16.5,0,29.9-13.3,29.9-29.7v-67.8
			C377.2,263.2,363.9,249.8,347.4,249.8z M356.6,347.4c0,5-4.1,9.2-9.1,9.2C171,356.5,27.4,213,27.4,36.4c0-5,4.1-9.1,9.2-9.1h68
			c5,0,9.2,4.1,9.2,9.1c0,24.9,3.9,49.3,11.6,72.5c1.1,3.4,0.2,7-3.3,10.6l-35.3,46.8c-2.4,3.1-2.7,7.4-1,10.9
			c28.8,56.7,64,91.8,121.1,121.1c3.5,1.8,7.7,1.4,10.9-0.9l47.9-36.3c2.4-2.4,6.1-3.3,9.3-2.2c23.4,7.7,47.7,11.6,72.7,11.6
			c5,0,9.1,4.1,9.1,9.2V347.4L356.6,347.4z"/>
	</g>
</g>
</svg>
