<svg xmlns="http://www.w3.org/2000/svg" width="14" height="12" viewBox="0 0 14 12">
  <defs>
    <style>
      .cls-1 {
        fill: #fff;
        fill-rule: evenodd;
      }
    </style>
  </defs>
  <path id="ico-1" class="cls-1" d="M804.682,3035.99a4.46,4.46,0,0,1,3.285,1.08h0.042a2.3,2.3,0,0,1,.516-0.39,4.551,4.551,0,0,1,3.75-.48,4.088,4.088,0,0,1,2.282,1.9,3.127,3.127,0,0,1,.455,1.5c0,0.2.019,0.43,0,.6a4.286,4.286,0,0,1-.155.69,4.189,4.189,0,0,1-.548,1.09,14.554,14.554,0,0,1-1.157,1.16c-0.987.92-1.976,1.85-2.964,2.78l-1.57,1.47a3.906,3.906,0,0,1-.651.6,2.694,2.694,0,0,0-.485-0.46c-0.393-.37-0.786-0.73-1.178-1.1l-3.2-3.03a11.128,11.128,0,0,1-1.394-1.36,3.783,3.783,0,0,1-.2-4.14,3.965,3.965,0,0,1,1.839-1.56c0.276-.11.566-0.19,0.878-0.28A1.263,1.263,0,0,0,804.682,3035.99Zm6.136,1.05c-0.2.02-.4,0.04-0.6,0.07a3.177,3.177,0,0,0-1.2.56,3.591,3.591,0,0,0-.754.83,1.667,1.667,0,0,1-.269.35h-0.031a3.861,3.861,0,0,0-2.179-1.74,3.213,3.213,0,0,0-1.643.1,2.752,2.752,0,0,0-1.931,3.16c0.307,1.25,1.208,1.67,1.952,2.49q1.906,1.785,3.811,3.58h0.032q1.962-1.86,3.925-3.7a6.446,6.446,0,0,0,1.673-1.88A2.812,2.812,0,0,0,810.818,3037.04Z" transform="translate(-801 -3036)"/>
</svg>
