<?xml version="1.0" encoding="utf-8"?>
<!-- Generator: Adobe Illustrator 24.1.2, SVG Export Plug-In . SVG Version: 6.00 Build 0)  -->
<svg version="1.1" id="Capa_1" xmlns="http://www.w3.org/2000/svg" xmlns:xlink="http://www.w3.org/1999/xlink" x="0px" y="0px"
	 viewBox="0 0 512 512" style="enable-background:new 0 0 512 512;" xml:space="preserve">
<g>
	<g>
		<path d="M366,396c-5.5,0-10,4.5-10,10s4.5,10,10,10s10-4.5,10-10S371.5,396,366,396z"/>
	</g>
</g>
<g>
	<g>
		<path d="M390.6,363.7l-47.5-15.8c0,0,0,0,0,0l-17-34.1c0,0,0,0,0-0.1c15.4-15.6,26-36.3,29.6-57.9l2.1-12.7c0,0,0,0,0,0H376
			c16.6,0,30-13.5,30-30v-61.5C406,68.9,338.4-0.1,255.8,0C173,0.1,106,67.2,106,150v63c0,13,8.3,24.1,20,28.3c0,0,0,0,0,0V253
			c0,16.6,13.5,30,30,30h8.7c0,0,0,0,0,0c4.3,9.4,9.9,18.1,16.8,25.9c1.4,1.6,2.9,3.2,4.4,4.7c0,0,0,0,0,0.1l-17,34.1c0,0,0,0,0,0
			l-47.5,15.8C66.1,382.1,26,440.2,26,501.9c0,5.5,4.5,10.1,10,10.1H476c5.5,0,10-4.5,10-10.1C486,440.2,445.9,382.1,390.6,363.7z
			 M156,263c-5.5,0-10-4.5-10-10V243c0,0,0,0,0,0h8.1c0,0,0,0,0,0l2.1,12.7c0.4,2.4,0.9,4.8,1.5,7.2c0,0,0,0.1,0,0.1H156z M146,140
			h-19.5c0,0,0,0,0-0.1C131.5,73,187.4,20,256,20c68.3,0,124.5,52.9,129.6,119.9c0,0,0,0.1,0,0.1H366c0,0,0,0,0,0
			c-0.7-55.2-45.7-100-101-100h-17.9C191.7,40,146.8,84.7,146,140C146,140,146,140,146,140z M178.5,263c-5-16.7-10.7-65.6-12-97
			c0,0,0,0,0,0L180,148c12.4-16.5,31.6-26.7,52-27.9c0,0,0,0,0,0c26.9,25.6,61.7,42.5,98.5,47.8l14.7,2.1c0,0,0,0,0,0
			c-1,20.9-3,41.8-5.9,61.1c0,0,0,0,0,0c-0.9,6.2-1.6,10.2-3.5,21.3c-5.3,31.8-29,60.5-60.3,68.3c-12.9,3.2-26.4,3.2-39.3,0
			c-19.5-4.9-37.4-18.4-49-37.7c0,0,0-0.1,0-0.1h20.3c0,0,0,0,0,0c4.1,11.6,15.2,20,28.3,20h19.3c16.3,0,30.2-12.8,30.7-29.1
			c0.5-16.9-13.2-30.9-30-30.9h-20c-13.3,0-24.3,8.6-28.3,20c0,0,0,0,0,0L178.5,263C178.6,263,178.5,263,178.5,263z M235.3,341.1
			C235.2,341.1,235.3,341,235.3,341.1c6.9,1.3,13.8,2.1,20.7,2.1c5.4,0,10.9-0.5,16.2-1.3c0,0,0.1,0,0,0.1l-17.5,18.6c0,0,0,0-0.1,0
			L235.3,341.1z M240.9,375.1l-31.6,33.5c0,0-0.1,0-0.1,0c-8.7-16.7-16.2-34.1-22.4-51.8c0,0,0,0,0,0l11.9-23.7c0,0,0.1,0,0.1,0
			L240.9,375.1C240.9,375.1,240.9,375.1,240.9,375.1z M311.6,329.6l13.6,27.1c0,0,0,0,0,0c-6.2,17.8-13.6,35.2-22.4,51.9
			c0,0-0.1,0-0.1,0l-33.9-33.9c0,0,0,0,0-0.1L311.6,329.6C311.5,329.5,311.6,329.5,311.6,329.6z M256,483l-13.5-21.7
			c-0.2-0.2-0.3-0.5-0.5-0.7c-8.1-10.8-15.6-22.1-22.5-33.6c0,0,0,0,0-0.1l35.6-37.7c0,0,0,0,0.1,0l37.5,37.5c0,0,0,0,0,0.1
			c-6.9,11.6-14.5,23-22.6,33.8C269.6,461.3,270.3,460.2,256,483C256,483.1,256,483.1,256,483z"/>
	</g>
</g>
<g>
	<g>
		<path d="M435.5,451.5c-6.7-13.4-16.5-25.3-28.3-34.4c-4.4-3.4-10.7-2.5-14,1.8c-3.4,4.4-2.5,10.7,1.8,14
			c9.5,7.3,17.3,16.8,22.6,27.5c2.5,4.9,8.5,6.9,13.4,4.5C436,462.5,438,456.5,435.5,451.5z"/>
	</g>
</g>
</svg>
