<?xml version="1.0" encoding="utf-8"?>
<!-- Generator: Adobe Illustrator 24.1.2, SVG Export Plug-In . SVG Version: 6.00 Build 0)  -->
<svg version="1.1" id="Слой_1" xmlns="http://www.w3.org/2000/svg" xmlns:xlink="http://www.w3.org/1999/xlink" x="0px" y="0px"
	 viewBox="0 0 384 384" style="enable-background:new 0 0 384 384;" xml:space="preserve">
<path d="M381.6,216.9c-5.2-12.1-18-19.9-32.5-19.9h-26.2l0,0V41.2c0-17.2-15.6-31.2-34.9-31.2H96c-19.3,0-35,13.9-35,31.2v155.7l0,0
	H34.9c-14.5,0-27.3,7.8-32.5,20c-5.2,12.1-1.6,25.5,9.3,34.4l156.9,124.6c6.8,5.5,15.2,8.2,23.6,8.2c8.4,0,16.7-2.7,23.4-8.1
	l157.3-124.8C383.3,242.5,386.8,229,381.6,216.9z M208.1,277.6C208,277.6,208,277.6,208.1,277.6v9.9c0,8.6-6.6,16.1-15.2,16.5
	c-9.2,0.4-16.7-6.9-16.7-16v-10.3l0,0c-22.8-6.8-39.6-27.8-40-52.7c-0.1-8.8,6.8-16.7,15.6-16.9c9-0.2,16.3,7,16.3,16
	c0,13.2,10.8,24,24,24c12.9,0,23.4-10.2,24-22.9c0.6-13.8-10.8-25-24.6-25.1c-30.6-0.3-55.4-25.3-55.4-56c0-25.3,16.9-46.7,40-53.6
	l0,0V80c0-9.1,7.6-16.4,16.7-16c8.6,0.4,15.2,7.8,15.2,16.5v9.8l0,0c22.8,6.8,39.6,27.8,40,52.7c0.1,8.8-6.8,16.7-15.6,16.9
	c-9,0.2-16.3-7-16.3-16c0-13.2-10.8-24-24-24c-12.9,0-23.4,10.2-24,22.9c-0.6,13.8,10.8,25,24.6,25.1c30.6,0.3,55.4,25.3,55.4,56
	C248,249.3,231.1,270.7,208.1,277.6z"/>
</svg>
