<?xml version="1.0" encoding="utf-8"?>
<!-- Generator: Adobe Illustrator 24.1.2, SVG Export Plug-In . SVG Version: 6.00 Build 0)  -->
<svg version="1.1" id="Layer_1" xmlns="http://www.w3.org/2000/svg" xmlns:xlink="http://www.w3.org/1999/xlink" x="0px" y="0px"
	 viewBox="0 0 512 512" style="enable-background:new 0 0 512 512;" xml:space="preserve">
<g>
	<path d="M491,106.8L491,106.8l-400.3,0l-6-66.3c-1-10.8-10.1-19.1-20.9-19.1l-42.2,0c-11,0-20.5,8.2-21.4,19.1
		C-1,53,8.8,63.4,21,63.4h23.5c2.2,24.7,3.1,34.1,3.2,35.3c-0.5-5.4-14.6-162.9,21,234.1c1.7,19.4,12.2,40.5,30.3,54.8
		c-32.6,41.6-2.8,103,50.2,103c44,0,75-43.9,59.9-85.4h115.1c-14.9,41,15.1,84.4,58.3,85.4c34.6,0.8,63.9-26.5,65.3-61
		c1.5-36.4-27.7-66.4-63.7-66.4H149.3c-16,0-29.9-9.6-35.9-23.7l336-19.7c9.2-0.5,16.9-7,19.2-15.9l42.7-170.9
		C514.7,119.7,504.6,106.8,491,106.8z M381.9,405.3c13.7-1.4,25.2,10.1,23.8,23.8c-1,10.1-9.2,18.3-19.4,19.4
		c-13.7,1.4-25.2-10.1-23.8-23.8C363.6,414.5,371.8,406.3,381.9,405.3z M147,405.3c13.7-1.4,25.2,10.1,23.8,23.8
		c-1,10.1-9.2,18.3-19.4,19.4c-13.7,1.4-25.2-10.1-23.8-23.8C128.6,414.5,136.8,406.3,147,405.3z"/>
	<path d="M47.7,98.8C47.7,98.8,47.7,98.8,47.7,98.8C47.7,98.8,47.7,98.8,47.7,98.8z"/>
	<path d="M47.7,98.8C47.7,98.9,47.7,98.9,47.7,98.8L47.7,98.8z"/>
</g>
</svg>
