<?xml version="1.0" encoding="utf-8"?>
<!-- Generator: Adobe Illustrator 24.1.2, SVG Export Plug-In . SVG Version: 6.00 Build 0)  -->
<svg version="1.1" id="Capa_1" xmlns="http://www.w3.org/2000/svg" xmlns:xlink="http://www.w3.org/1999/xlink" x="0px" y="0px"
	 viewBox="0 0 426.7 426.7" style="enable-background:new 0 0 426.7 426.7;" xml:space="preserve">
<path d="M151.5,234.7h158.9c16,0,30-8.9,37.3-22L424,74.2c1.7-3,2.7-6.5,2.7-10.2c0-11.8-9.6-21.3-21.3-21.3H89.9L69.7,0H0v42.7
	h42.7l76.7,161.8l-28.8,52.3c-3.3,6.2-5.2,13.1-5.2,20.6c0,23.6,19.1,42.7,42.7,42.7h256v-42.7H137.1c-3,0-5.3-2.3-5.3-5.3
	c0-1,0.2-1.8,0.6-2.6L151.5,234.7z M117,89h243l-56,99H160C160,188,118,91,117,89z"/>
<path d="M128,341.3c-23.6,0-42.5,19.1-42.5,42.7c0,23.6,18.9,42.7,42.5,42.7s42.7-19.1,42.7-42.7C170.7,360.4,151.6,341.3,128,341.3
	z M128.1,393c-5,0-9-4-9-9s4-9,9-9s9,4,9,9S133.1,393,128.1,393z"/>
<path d="M341.3,341.3c-23.6,0-42.5,19.1-42.5,42.7c0,23.6,18.9,42.7,42.5,42.7c23.6,0,42.7-19.1,42.7-42.7S364.9,341.3,341.3,341.3z
	 M341.4,393.3c-5.1,0-9.3-4.2-9.3-9.3s4.2-9.3,9.3-9.3s9.3,4.2,9.3,9.3S346.6,393.3,341.4,393.3z"/>
</svg>
